<svg width="86" height="41" viewBox="0 0 86 41" fill="none" xmlns="http://www.w3.org/2000/svg">
<path d="M72.7881 32.2013C72.2494 32.2455 71.7629 32.3945 71.3204 32.676H71.3177C70.331 33.3163 69.1739 33.7303 67.9151 33.8351C63.8885 34.1718 60.3567 31.2298 60.0269 27.2639C59.6971 23.298 62.6929 19.8068 66.7195 19.4701C68.3383 19.3348 70.1551 19.9696 71.161 20.5078C71.7712 20.8334 72.4446 21.0791 73.1867 21.0156C74.9402 20.8693 76.243 19.321 76.0973 17.5603C76.0148 16.575 75.5064 15.7167 74.7588 15.1895C72.3016 13.644 69.3278 12.8519 66.1918 13.1141C60.4887 13.5916 55.7338 17.5768 54.0984 22.7736V13.5419C54.0984 11.4637 52.4219 9.78021 50.3522 9.78021C48.2826 9.78021 46.6061 11.4637 46.6061 13.5419V15.6477C46.4741 15.2641 46.323 14.8887 46.1526 14.5244L45.9904 14.1849C44.0939 10.4812 40.7106 8.59072 36.5548 8.59072C34.499 8.59072 32.5118 9.15649 30.7775 10.2273C30.7555 10.2411 30.7308 10.2577 30.7033 10.2742C30.0409 9.03781 28.7437 7.7876 27.2485 7.7876C25.0827 7.7876 23.3264 9.55115 23.3264 11.7259C23.3264 11.7397 23.3264 15.0433 23.3264 19.2741V19.4866C21.2898 15.518 17.1698 12.805 12.4177 12.805H12.2747C5.49422 12.8023 0.00274848 18.3165 0 25.1195C0.00274848 30.3494 3.4466 35.1102 8.37738 36.7827C11.1836 37.7348 14.3251 37.641 17.0653 36.4984C18.599 35.8581 19.6682 34.4009 19.0497 32.687C18.511 31.1912 16.8647 30.4184 15.3778 30.9594C15.3668 30.9649 15.353 30.9704 15.342 30.9732C12.195 32.1765 8.47083 30.9704 6.90145 27.9097C6.81624 27.7303 6.93992 27.5151 7.19004 27.5151C11.7498 27.5151 16.3095 27.5151 20.8692 27.5123H20.8775C21.8202 27.5123 22.675 27.1563 23.3291 26.5767V26.9106C23.3291 32.411 23.3291 37.296 23.3291 37.296C23.3429 39.341 24.9975 40.997 27.0368 40.997C29.079 40.997 30.7363 39.3383 30.7473 37.2905V28.0974C32.4898 29.1792 34.488 29.7533 36.5576 29.7533C40.76 29.7533 44.3633 27.6806 46.1581 23.861C46.3285 23.4967 46.4796 23.1296 46.6088 22.7543V32.8002C46.6088 34.8784 48.2854 36.5619 50.355 36.5619C52.4246 36.5619 54.1012 34.8784 54.1012 32.8002V30.6641C55.9866 36.6364 61.9893 40.7265 68.4455 40.1856C70.3392 40.0255 72.112 39.4984 73.6979 38.6759C74.0909 38.4744 74.4702 38.2537 74.8357 38.0163C75.7537 37.3926 76.3089 36.2914 76.21 35.1047C76.0643 33.3549 74.5334 32.055 72.7881 32.2013ZM18.7199 22.2134C18.6595 22.3155 18.511 22.4838 18.1895 22.4838L7.34395 22.5114H7.31372C7.03887 22.5114 6.79975 22.3845 6.67882 22.172C6.56338 21.9677 6.56888 21.7166 6.69256 21.5013C7.58307 19.9613 9.01503 18.8353 10.7246 18.333C11.3595 18.1453 12.0164 18.0515 12.676 18.0515C15.0974 18.0515 17.4446 19.4066 18.6595 21.5041C18.8134 21.7828 18.8326 22.0202 18.7199 22.2134ZM35.9254 23.919C33.089 23.919 30.7885 21.6918 30.7885 18.9457C30.7885 16.1996 33.089 13.9724 35.9254 13.9724C38.7619 13.9724 41.0624 16.1996 41.0624 18.9457C41.0624 21.6918 38.7619 23.919 35.9254 23.919Z" fill="#0A96E6"/>
<path d="M49.5053 8.30099C51.8498 8.78672 53.9881 7.24396 54.4388 5.04158C54.9116 2.73709 53.5373 0.573357 51.1929 0.0876201C48.9474 -0.376038 46.7321 1.04253 46.2594 3.34702C45.8059 5.55216 47.2598 7.83733 49.5053 8.30099Z" fill="#0A96E6"/>
<path d="M81.8247 31.0921C83.8943 31.0921 85.5709 29.4086 85.5709 27.3304V8.06921C85.5709 5.99102 83.8943 4.3075 81.8247 4.3075C79.7551 4.3075 78.0786 5.99102 78.0786 8.06921V27.3304C78.0786 29.4058 79.7551 31.0921 81.8247 31.0921Z" fill="#0A96E6"/>
<path d="M82.6712 32.6983C80.3267 32.2125 78.1884 33.7553 77.7376 35.9577C77.2649 38.2622 78.6391 40.4259 80.9836 40.9116C83.2291 41.378 85.4444 39.9567 85.9171 37.6522C86.3706 35.4498 84.9167 33.1647 82.6712 32.6983Z" fill="#0A96E6"/>
</svg>
