<svg width="57" height="57" viewBox="0 0 57 57" fill="none" xmlns="http://www.w3.org/2000/svg">
<path d="M26.8618 2.33669C26.8618 1.01404 27.435 0 28.1404 0C28.8458 0 29.4189 1.05813 29.4189 2.33669C29.4189 3.61525 28.8458 4.67337 28.1404 4.67337C27.435 4.67337 26.8618 3.61525 26.8618 2.33669Z" fill="#0A96E6"/>
<path d="M35.6378 54.403C35.2851 53.1244 35.5937 51.9781 36.255 51.8018C36.9164 51.6254 37.754 52.5072 38.0627 53.7417C38.3713 54.9761 38.1067 56.1665 37.4454 56.3429C36.7841 56.5192 35.9464 55.6374 35.6378 54.403Z" fill="#0A96E6"/>
<path d="M54.1094 26.1012C52.8308 26.2776 51.6846 25.8367 51.5964 25.1313C51.5082 24.4259 52.4781 23.7646 53.8008 23.5882C55.0794 23.4118 56.2256 23.8527 56.3138 24.5582C56.402 25.2636 55.388 25.969 54.1094 26.1012Z" fill="#0A96E6"/>
<path d="M2.57023 23.6296C3.84879 23.8942 4.73056 24.6878 4.5983 25.3932C4.46603 26.0545 3.27565 26.4072 2.04117 26.0986C0.762613 25.8341 -0.119149 25.0405 0.0131155 24.335C0.145381 23.6737 1.33576 23.3651 2.57023 23.6296Z" fill="#0A96E6"/>
<path d="M10.2858 9.25563C9.49219 8.2416 9.31584 7.05121 9.8449 6.61033C10.418 6.16945 11.4762 6.65442 12.2698 7.71254C13.0633 8.72657 13.2397 9.91695 12.7106 10.3578C12.1816 10.7546 11.0794 10.2697 10.2858 9.25563Z" fill="#0A96E6"/>
<path d="M49.9214 43.5571C48.8192 42.8517 48.202 41.8376 48.5988 41.2645C48.9515 40.6913 50.1419 40.7354 51.2882 41.4408C52.3904 42.1462 53.0076 43.1603 52.6108 43.7334C52.214 44.3066 51.0236 44.2625 49.9214 43.5571Z" fill="#0A96E6"/>
<path d="M4.68742 41.3979C5.78963 40.7365 7.0241 40.6925 7.37681 41.3097C7.72952 41.9269 7.11228 42.941 5.96598 43.6023C4.86378 44.2636 3.6293 44.3077 3.27659 43.6905C2.96798 43.0732 3.58521 42.0592 4.68742 41.3979Z" fill="#0A96E6"/>
<path d="M46.3059 9.25632C45.5123 10.2704 44.4101 10.7553 43.881 10.3144C43.352 9.87356 43.5283 8.72726 44.3219 7.66914C45.1155 6.65511 46.2177 6.17014 46.7468 6.61103C47.3199 7.05191 47.0995 8.24229 46.3059 9.25632Z" fill="#0A96E6"/>
<path d="M17.7369 53.6127C18.1778 52.3783 19.1036 51.5847 19.7209 51.8492C20.3822 52.1137 20.5586 53.26 20.0736 54.4945C19.6327 55.729 18.7068 56.5226 18.0896 56.258C17.4283 56.0376 17.296 54.8472 17.7369 53.6127Z" fill="#0A96E6"/>
<path d="M25.8048 54.1408C26.0693 50.8782 26.422 47.6598 26.6866 44.3972C26.8188 42.766 26.9952 41.1347 27.0833 39.5034L27.2597 37.0345L27.3479 35.8V35.5355C27.3479 35.4914 27.3479 35.4914 27.3479 35.4473C27.392 35.4473 27.392 35.4914 27.4361 35.4914C27.5242 35.4914 27.7888 35.5355 27.9651 35.4914C28.1415 35.4473 28.3178 35.4032 28.4501 35.4032L28.6264 35.3591H28.6705C28.7146 35.3591 28.7146 35.4032 28.7146 35.4032L28.7587 35.8L28.8469 36.4172C28.891 36.814 28.9351 37.2549 28.9791 37.6517C29.0673 38.4894 29.1114 39.3271 29.1555 40.1648C29.2878 41.8401 29.3318 43.5596 29.4641 45.279C29.7286 48.6738 30.2136 52.1127 31.4481 55.0225C31.4922 55.1107 31.5804 55.0666 31.5363 54.9343C30.8749 51.4073 30.6104 47.792 30.39 44.1768C30.2577 42.3692 30.1695 40.5615 30.0373 38.7539C29.9491 37.8281 29.8609 36.9463 29.7727 36.0205L29.6846 35.3591C29.6405 35.0946 29.5964 34.6978 29.5523 34.4333C29.5964 34.2128 29.3759 34.301 29.1996 34.2569C29.0232 34.2569 28.891 34.2569 28.7146 34.301C28.5823 34.301 28.3619 34.3451 28.2296 34.3892L27.921 34.4774C27.8328 34.4774 27.7447 34.5214 27.7006 34.4774C27.6565 34.4774 27.6124 34.4774 27.5683 34.4774C27.5242 34.4774 27.4361 34.4333 27.3479 34.4333C27.0393 34.3451 26.6865 34.2128 26.3779 34.0806C26.3338 34.1247 26.3338 34.2128 26.3338 34.301V34.5655L26.2898 35.0505L26.2457 35.8882L26.1575 37.1667L25.937 39.768C25.7607 41.4874 25.5843 43.2068 25.408 44.9263L24.7026 50.9664C24.5703 52.2009 24.3499 53.4353 24.6144 54.5816C24.8789 55.4634 25.7166 55.1548 25.8048 54.1408Z" fill="#0A96E6"/>
<path d="M10.5062 46.8631C12.7988 44.5265 15.1354 42.278 17.4721 39.9854C18.6184 38.8391 19.8088 37.6928 20.9551 36.5024L22.6746 34.7389L23.5122 33.8571L23.6886 33.6366L23.7327 33.5926C23.7327 33.6366 23.7768 33.6366 23.7768 33.6807C23.8209 33.7689 23.9972 33.9012 24.1736 34.0334C24.3499 34.1216 24.4822 34.2098 24.6144 34.2539L24.7467 34.342L24.7908 34.3861C24.8349 34.3861 24.7908 34.4302 24.7908 34.4743L24.5704 34.827L24.2176 35.3561C23.9972 35.7088 23.7768 36.0174 23.5122 36.3701C23.0273 37.0314 22.5423 37.7369 22.0573 38.3982C21.0433 39.7649 20.0293 41.1317 19.0152 42.5425C17.0312 45.32 15.1795 48.274 14.2537 51.272C14.2096 51.3601 14.3419 51.3601 14.3859 51.272C16.1495 48.1417 18.2657 45.2319 20.426 42.322C21.4842 40.8671 22.5864 39.4122 23.6445 37.9132C24.1736 37.1637 24.7026 36.4142 25.1876 35.6647L25.5844 35.0916C25.7167 34.8711 25.9371 34.5625 26.0694 34.298C26.2457 34.1657 26.0253 34.0775 25.893 33.9453C25.7607 33.8571 25.6285 33.7689 25.4962 33.6366C25.3639 33.5485 25.1876 33.4603 25.0994 33.4162L24.7908 33.2839C24.7026 33.2398 24.6585 33.1958 24.6144 33.1517C24.5703 33.1517 24.5704 33.1076 24.5263 33.0635C24.4822 33.0194 24.4381 32.9312 24.394 32.8871C24.2176 32.6226 24.0413 32.2699 23.8649 32.0054C23.8208 32.0054 23.7768 32.0935 23.6886 32.1376L23.5122 32.314L23.1595 32.6667L22.5864 33.2839L21.6605 34.2098L19.8088 36.0615C18.5743 37.296 17.3399 38.4864 16.0613 39.6767L11.6525 43.8651C10.7266 44.7469 9.80077 45.4964 9.27171 46.5545C8.919 47.304 9.80076 47.6126 10.5062 46.8631Z" fill="#0A96E6"/>
<path d="M3.45267 31.4796C6.7152 31.171 9.93365 30.9505 13.1962 30.686C14.8275 30.5537 16.4587 30.4215 18.09 30.2451L20.5149 29.9806L21.7493 29.8483L22.0139 29.8042C22.0579 29.8042 22.0579 29.8042 22.102 29.8042C22.102 29.8483 22.102 29.8483 22.102 29.8924C22.102 29.9806 22.1461 30.2451 22.1902 30.3774C22.2343 30.5537 22.3225 30.7301 22.3666 30.8182L22.4547 30.9946V31.0387C22.4988 31.0828 22.4106 31.0828 22.4106 31.0828L22.0139 31.2151L21.4407 31.3914C21.0439 31.5237 20.6471 31.6118 20.2503 31.7441C19.4567 31.9645 18.6191 32.185 17.8255 32.3613C16.1942 32.7581 14.5188 33.1549 12.8435 33.5958C9.53686 34.4335 6.23023 35.4916 3.62902 37.2111C3.54085 37.2551 3.62902 37.3433 3.7172 37.2992C7.06791 36.0207 10.595 35.183 14.122 34.3012C15.8856 33.8604 17.6491 33.4636 19.4126 32.9786C20.2944 32.7581 21.1762 32.4936 22.0579 32.2732L22.7193 32.0968C22.9838 32.0086 23.3365 31.9205 23.601 31.7882C23.8215 31.7882 23.6892 31.5678 23.6892 31.4355C23.6451 31.2591 23.6451 31.1269 23.5569 30.9505C23.5129 30.8183 23.4247 30.5978 23.3806 30.5096L23.2483 30.201C23.2042 30.1128 23.2042 30.0247 23.2042 29.9806C23.2042 29.9365 23.2042 29.8924 23.2042 29.8483C23.2042 29.8042 23.2042 29.672 23.2042 29.6279C23.2483 29.2752 23.3365 28.9225 23.3806 28.6138C23.3365 28.5697 23.2483 28.6138 23.1602 28.6138L22.8956 28.6579L22.4106 28.702L21.573 28.7902L20.2503 28.9225L17.6491 29.1429C15.9297 29.2752 14.1661 29.4074 12.4467 29.4956L6.3625 29.8924C5.12803 29.9806 3.89355 29.9806 2.79134 30.4215C1.95366 30.7742 2.43864 31.5678 3.45267 31.4796Z" fill="#0A96E6"/>
<path d="M7.95007 15.1203C10.6395 16.972 13.2848 18.8678 15.9301 20.7636C17.2527 21.6895 18.6194 22.6594 19.9421 23.5853L21.9702 24.952L22.9842 25.6133L23.2046 25.7456L23.2487 25.7897C23.2046 25.7897 23.2046 25.8338 23.1605 25.8338C23.1165 25.922 22.9842 26.0983 22.896 26.2747C22.8078 26.451 22.7637 26.6274 22.7637 26.7155L22.7197 26.8919V26.936C22.7197 26.9801 22.6756 26.936 22.6315 26.936L22.2788 26.8037L21.7056 26.5833C21.3529 26.4069 20.9561 26.2306 20.5593 26.0542C19.8098 25.7015 19.0603 25.3488 18.2667 24.952C16.7236 24.2025 15.2246 23.4089 13.6816 22.6594C10.5954 21.1604 7.37692 19.8819 4.29074 19.4851C4.20257 19.4851 4.20257 19.5732 4.29074 19.6173C7.68554 20.8077 10.9481 22.3949 14.1665 24.0262C15.7978 24.8197 17.385 25.6574 19.0603 26.4069C19.898 26.8037 20.6916 27.1564 21.5293 27.5532L22.1465 27.8178C22.411 27.9059 22.7197 28.0823 23.0283 28.1705C23.2046 28.3027 23.2487 28.0823 23.3369 27.95C23.4251 27.8178 23.4692 27.6855 23.5573 27.5091C23.6014 27.3769 23.6896 27.1564 23.7337 27.0683L23.8219 26.7596C23.866 26.6715 23.866 26.6274 23.91 26.5392C23.91 26.4951 23.9541 26.451 23.9982 26.451C24.0423 26.4069 24.0864 26.3188 24.1746 26.2747C24.4391 26.0542 24.7036 25.8338 24.9682 25.6133C24.9682 25.5693 24.88 25.5252 24.7918 25.4811L24.5714 25.3488L24.1746 25.0843L23.4692 24.6434L22.411 23.8939L20.2948 22.3949C18.884 21.3809 17.4731 20.3668 16.0623 19.3528L11.1685 15.7376C10.1545 14.9881 9.22863 14.1945 8.08233 13.8418C7.24465 13.6654 7.1124 14.5472 7.95007 15.1203Z" fill="#0A96E6"/>
<path d="M21.8809 5.51396C22.7627 8.64423 23.5563 11.8186 24.3499 14.9929C24.7467 16.5801 25.1875 18.1673 25.6284 19.7545L26.3338 22.1353L26.6865 23.3256L26.7747 23.5902C26.7747 23.6343 26.8188 23.6343 26.7747 23.6784C26.7306 23.6784 26.7306 23.6784 26.6865 23.6784C26.5984 23.6784 26.3779 23.7665 26.2016 23.8547C26.0252 23.9429 25.893 24.0311 25.8048 24.1192L25.6725 24.2074H25.6284C25.5843 24.2515 25.5843 24.2074 25.5843 24.1633L25.408 23.8106L25.1434 23.2816C24.9671 22.9289 24.7907 22.5321 24.6144 22.1793C24.2617 21.4298 23.909 20.6803 23.5563 19.8868C22.8949 18.3437 22.1895 16.7565 21.4841 15.1693C20.0733 12.039 18.442 8.99694 16.3258 6.70435C16.2817 6.61617 16.1935 6.70434 16.2376 6.79252C18.0893 9.8787 19.5442 13.1853 20.9991 16.4919C21.7046 18.1673 22.4541 19.7986 23.2036 21.4739C23.6004 22.3116 23.9531 23.1052 24.3939 23.9429L24.7026 24.5601C24.8348 24.8246 25.0112 25.1333 25.1434 25.3978C25.1875 25.6182 25.3639 25.486 25.5402 25.4419C25.6725 25.3978 25.8489 25.3096 25.9811 25.2655C26.1134 25.1774 26.2897 25.0892 26.3779 25.0451L26.6424 24.8687C26.7306 24.8246 26.7747 24.7806 26.8629 24.7806C26.907 24.7806 26.9511 24.7806 26.9952 24.7365C27.0392 24.7365 27.1715 24.7365 27.2156 24.6924C27.5683 24.6924 27.921 24.6924 28.2737 24.6924C28.3178 24.6483 28.2296 24.5601 28.2296 24.4719L28.1414 24.2515L28.0092 23.7665L27.7887 22.9729L27.436 21.7385L26.7747 19.2254C26.3338 17.5501 25.937 15.8747 25.4962 14.1553L24.0853 8.24744C23.7767 7.01296 23.5563 5.82257 22.939 4.85263C22.3218 3.92678 21.6164 4.54401 21.8809 5.51396Z" fill="#0A96E6"/>
<path d="M38.7671 7.10283C37.4004 10.0568 35.9895 13.0107 34.5787 15.9646C33.8733 17.4636 33.1679 18.9185 32.5065 20.4175L31.4925 22.666L31.0075 23.8123L30.9194 24.0768C30.9194 24.0768 30.9194 24.1209 30.8753 24.1209C30.8312 24.0768 30.8312 24.0768 30.7871 24.0768C30.6989 24.0328 30.4785 23.9446 30.3021 23.9005C30.1258 23.8564 29.9494 23.8564 29.8172 23.8564H29.6408H29.5967C29.5526 23.8564 29.5526 23.8123 29.5967 23.7682L29.6849 23.3714L29.8172 22.7542C29.9053 22.3574 30.0376 21.9606 30.1258 21.5638C30.3462 20.7702 30.5667 19.9325 30.7871 19.1389C31.2721 17.5077 31.757 15.8764 32.242 14.2011C33.1679 10.8944 33.8733 7.54371 33.741 4.36935C33.741 4.28118 33.6528 4.32527 33.6088 4.41344C33.0356 7.9846 32.0216 11.4235 31.0075 14.9065C30.4785 16.6259 29.9935 18.3894 29.5085 20.1089C29.2881 20.9907 29.0236 21.8724 28.8031 22.7542L28.6268 23.4155C28.5827 23.68 28.4945 24.0328 28.4504 24.3414C28.3622 24.5618 28.5827 24.5618 28.715 24.6059C28.8472 24.65 29.0236 24.6941 29.1558 24.7382C29.2881 24.7823 29.5085 24.8263 29.6408 24.8263L29.9494 24.8704C30.0376 24.8704 30.1258 24.9145 30.1699 24.9145C30.214 24.9145 30.258 24.9586 30.3021 24.9586C30.3462 25.0027 30.4344 25.0468 30.4785 25.0909C30.743 25.3113 31.0075 25.5317 31.2721 25.7522C31.3162 25.7522 31.3602 25.6199 31.3602 25.5758L31.4484 25.3554L31.6248 24.9145L31.9775 24.165L32.5065 22.9746L33.6088 20.5939C34.3583 19.0067 35.1078 17.4636 35.9013 15.9205L38.6348 10.4535C39.208 9.35134 39.8252 8.24913 39.9575 7.10283C40.0897 6.17698 39.1639 6.17698 38.7671 7.10283Z" fill="#0A96E6"/>
<path d="M50.6702 19.1798C47.7163 20.5907 44.7624 21.9133 41.7644 23.28C40.2654 23.9414 38.8105 24.6468 37.3115 25.3522L35.1071 26.4544L34.0049 27.0276L33.7403 27.1598C33.6962 27.1598 33.6962 27.2039 33.6962 27.2039C33.6962 27.1598 33.6962 27.1598 33.6962 27.1157C33.6521 27.0275 33.564 26.8071 33.4317 26.6748C33.2994 26.5426 33.2113 26.4103 33.1231 26.3221L32.9908 26.1899L32.9467 26.1458C32.9026 26.1017 32.9467 26.1017 32.9908 26.1017L33.2994 25.8813L33.7844 25.5285C34.1371 25.3081 34.4457 25.0436 34.7984 24.8231C35.4598 24.3382 36.1652 23.8532 36.8706 23.4123C38.2814 22.4865 39.7363 21.5165 41.1472 20.5466C43.9688 18.6067 46.7023 16.4904 48.5981 13.9774C48.6422 13.8892 48.554 13.8451 48.4658 13.9333C45.7323 16.27 42.7343 18.2981 39.7363 20.282C38.2373 21.2961 36.7383 22.266 35.2393 23.3241C34.4898 23.8532 33.7403 24.3822 33.0349 24.9113L32.5059 25.3081C32.2854 25.4845 31.9768 25.7049 31.7564 25.8813C31.5359 25.9694 31.7123 26.1017 31.8004 26.278C31.8886 26.4103 31.9768 26.5426 32.065 26.6748C32.1531 26.8071 32.2854 26.9394 32.3736 27.0276L32.594 27.248C32.6381 27.3362 32.6822 27.3803 32.7263 27.4243C32.7263 27.4684 32.7704 27.5125 32.7704 27.5566C32.7704 27.6007 32.8145 27.6889 32.8586 27.777C32.9467 28.0857 32.9908 28.4825 33.0349 28.7911C33.079 28.8352 33.1672 28.747 33.2113 28.7029L33.4317 28.6147L33.8726 28.3943L34.6221 28.0416L35.8125 27.4684L38.1492 26.3662C39.7363 25.6608 41.3235 24.9554 42.9107 24.25L48.5099 21.8251C49.6562 21.3402 50.8025 20.8993 51.6843 20.1057C52.3015 19.3121 51.5961 18.7389 50.6702 19.1798Z" fill="#0A96E6"/>
<path d="M52.0358 36.0644C48.8614 35.2267 45.7312 34.3449 42.6009 33.4632C41.0137 33.0223 39.4265 32.6255 37.8394 32.1846L35.4586 31.6115L34.2682 31.3469L34.0037 31.3028C34.0037 31.3028 33.9596 31.3028 33.9155 31.2587C33.9155 31.2147 33.9596 31.2147 33.9596 31.1706C34.0037 31.0824 34.0478 30.862 34.0478 30.6856C34.0478 30.5093 34.0478 30.3329 34.0478 30.2006V30.0243V29.9802C34.0478 29.9361 34.0919 29.9361 34.0919 29.9361H34.4886L35.1059 29.9802C35.5027 30.0243 35.9436 30.0243 36.3404 30.0684C37.178 30.1565 38.0157 30.2447 38.8534 30.3329C40.5288 30.5093 42.2482 30.7297 43.9676 30.906C47.3624 31.2588 50.8454 31.3469 53.8875 30.6415C53.9757 30.6415 53.9316 30.5093 53.8434 30.5093C50.2282 30.5533 46.657 30.1565 43.0418 29.7597C41.2342 29.5393 39.4265 29.363 37.6189 29.1866C36.6931 29.0984 35.8113 29.0103 34.8855 28.9662L34.2241 28.9221C33.9596 28.9221 33.5628 28.878 33.2983 28.878C33.0778 28.7898 33.1219 29.0543 33.0778 29.1866C33.0337 29.363 33.0337 29.4952 33.0337 29.6716C33.0337 29.8038 33.0337 30.0243 33.0337 30.1565L33.0778 30.4652C33.0778 30.5533 33.0778 30.6415 33.0778 30.6856C33.0778 30.7297 33.0337 30.7738 33.0337 30.8179C33.0337 30.862 32.9897 30.9501 32.9456 31.0383C32.8133 31.3469 32.5929 31.6555 32.4165 31.9201C32.4165 31.9642 32.5488 31.9642 32.6369 32.0083L32.8574 32.0523L33.3424 32.1846L34.1359 32.361L35.4145 32.6696L37.9275 33.3309C39.6029 33.7718 41.2783 34.2568 42.9536 34.7858L48.7733 36.5053C49.9637 36.858 51.11 37.2988 52.3003 37.2107C53.1821 37.2107 53.0057 36.3289 52.0358 36.0644Z" fill="#0A96E6"/>
<path d="M42.2042 49.8637C40.3084 47.2184 38.5008 44.4849 36.605 41.7955C35.6792 40.4288 34.7533 39.1061 33.7834 37.7835L32.3285 35.7995L31.579 34.8296L31.4026 34.6091L31.3585 34.565C31.4026 34.565 31.4026 34.565 31.4467 34.521C31.5349 34.4769 31.7112 34.3446 31.8435 34.2123C31.9758 34.0801 32.0639 33.9478 32.1521 33.8155L32.2403 33.6833L32.2844 33.6392C32.3285 33.5951 32.3285 33.6392 32.3726 33.6392L32.6812 33.9037L33.1221 34.3446C33.4307 34.6091 33.6952 34.9177 34.0038 35.2264C34.577 35.7995 35.1942 36.4167 35.7674 37.034C36.9577 38.2685 38.104 39.5029 39.2944 40.7374C41.6752 43.2063 44.2764 45.4989 47.054 46.9098C47.1421 46.9538 47.1421 46.8657 47.0981 46.7775C44.3205 44.4849 41.8075 41.8837 39.3385 39.2825C38.104 37.9598 36.8255 36.6372 35.591 35.3586C34.9297 34.6973 34.3124 34.0801 33.6511 33.4628L33.1661 32.9779C32.9457 32.8015 32.6812 32.537 32.4607 32.3606C32.3285 32.1843 32.2403 32.3606 32.108 32.4488C31.9758 32.537 31.8876 32.6692 31.7553 32.8015C31.6671 32.8897 31.5349 33.066 31.4467 33.1542L31.2703 33.4187C31.2263 33.5069 31.1822 33.551 31.094 33.5951C31.0499 33.6392 31.0058 33.6392 31.0058 33.6833C30.9617 33.7274 30.8735 33.7714 30.7854 33.7714C30.4768 33.9037 30.124 34.036 29.8154 34.1241C29.8154 34.1682 29.9036 34.2564 29.9036 34.3005L30.0359 34.4769L30.3445 34.8737L30.8295 35.535L31.579 36.5931L33.078 38.7093C34.0479 40.1202 35.0179 41.5751 35.9878 43.03L39.3385 48.1001C40.0439 49.1583 40.6612 50.2164 41.587 50.9218C42.3365 51.4949 42.7774 50.7014 42.2042 49.8637Z" fill="#0A96E6"/>
</svg>
