<svg width="36" height="41" viewBox="0 0 36 41" fill="none" xmlns="http://www.w3.org/2000/svg">
<path d="M19.8241 19.029C19.8241 18.9634 19.6929 18.6026 19.5617 18.7994C19.4961 18.8978 19.4633 18.9962 19.3648 19.0618C19.2664 19.1602 19.1024 19.2258 19.004 19.2914C18.676 19.4554 18.3808 19.6522 18.0527 19.8163C18.0199 19.357 17.9871 18.8978 17.9215 18.4385C17.9215 18.3401 17.8559 18.1433 17.6919 18.2089C17.6591 18.2089 17.6263 18.2417 17.5935 18.3073C17.5935 18.3073 17.5935 18.3073 17.5607 18.3073C17.4295 18.3073 17.4295 18.6354 17.5607 18.6682C17.5935 19.029 17.6263 19.4226 17.6591 19.7835C17.1671 19.521 16.7078 19.2586 16.2486 18.9634C16.0189 18.8322 15.9205 19.5538 16.1502 19.685C16.4782 19.9147 16.839 20.1115 17.1671 20.3083C16.8062 20.5051 16.4454 20.7019 16.0846 20.8988C15.8221 21.03 15.9205 21.85 16.183 21.7188C16.7078 21.4236 17.2327 21.1284 17.7575 20.866C17.7903 21.4892 17.7575 22.0797 17.8559 22.7029C17.8559 22.7685 17.9215 22.9325 18.0199 22.9325C18.1183 22.9325 18.1511 22.7685 18.1839 22.7029C18.2495 22.0797 18.1839 21.4564 18.1511 20.8332C18.4464 20.9972 18.7416 21.1284 19.0696 21.2924C19.2336 21.358 19.3976 21.4564 19.5617 21.522C19.7257 21.5876 19.8569 21.686 20.0209 21.6204C20.1849 21.5548 20.1521 21.194 20.0537 21.0628C19.9553 20.8988 19.7585 20.8332 19.5945 20.7675C19.4305 20.7019 19.2664 20.6035 19.1024 20.5379C19.004 20.4723 18.8728 20.4395 18.7744 20.3739C18.9712 20.2755 19.168 20.1443 19.3648 20.0459C19.6929 19.7507 19.9225 19.4226 19.8241 19.029Z" fill="#0A96E6"/>
<path d="M17.9865 17.1937C18.2817 16.308 18.577 15.4551 18.905 14.6022C19.0034 14.3726 19.1018 14.1102 19.1674 13.8806C19.2986 13.8478 19.397 13.815 19.4954 13.7166C19.6267 13.5854 19.6267 13.2573 19.4626 13.1261C19.6267 12.7653 19.7907 12.4044 19.8235 12.0436C19.8235 11.9452 19.7907 11.486 19.5938 11.6828C19.4626 11.814 19.397 12.0436 19.3314 12.2404C19.2658 12.4701 19.1674 12.6669 19.1018 12.8965C19.069 12.9621 19.069 12.9949 19.0362 13.0605C18.9378 13.0605 18.8066 13.0933 18.7082 13.1261C18.4457 13.1589 18.2161 13.1917 17.9537 13.2245C17.4617 13.2901 16.9696 13.3557 16.4448 13.4213C16.412 13.4213 16.412 13.4541 16.3792 13.4541C16.2151 13.0605 16.0183 12.6997 15.8871 12.306C15.8215 12.142 15.6903 12.1748 15.5919 12.306C15.4935 12.4701 15.5263 12.6997 15.5919 12.8637C16.2151 14.3726 16.8712 15.8488 17.6257 17.2593C17.7897 17.4889 17.9209 17.3905 17.9865 17.1937ZM18.0193 14.0774C18.2489 14.0446 18.4786 14.0118 18.7082 13.979C18.6754 14.0446 18.6426 14.143 18.6098 14.2086C18.3473 14.9303 18.0849 15.6847 17.7897 16.4064C17.4289 15.6847 17.1008 14.9631 16.74 14.2414C17.1664 14.1758 17.5929 14.1102 18.0193 14.0774Z" fill="#0A96E6"/>
<path d="M15.5279 11.1237C15.8559 10.6317 16.1511 10.1724 16.4791 9.68038C16.6431 9.45076 16.7744 9.22114 16.9384 8.99151C17.0368 8.8275 17.168 8.66349 17.2664 8.49947C17.2992 8.59788 17.332 8.69629 17.3976 8.7947C17.7584 9.54917 18.3489 10.2052 18.9065 10.8285C19.1034 11.0581 19.2346 10.5989 19.2346 10.4676C19.2346 10.3692 19.2346 10.2708 19.2018 10.1724C19.169 10.0412 19.0706 9.84439 18.9722 9.9428C18.5129 9.41795 18.0209 8.89311 17.7256 8.26985C17.3648 7.54819 17.2336 6.79372 17.1352 6.00645C17.1352 5.90804 17.0368 5.67842 16.9056 5.74403C16.7744 5.80963 16.7744 6.07206 16.7744 6.20327C16.84 6.72811 16.9056 7.28576 17.0368 7.81061C17.004 7.84341 16.9712 7.90902 16.9384 7.94182C16.8728 8.07303 16.7744 8.20425 16.7088 8.30265C16.5447 8.53227 16.4135 8.7947 16.2495 9.02432C15.9215 9.51636 15.6263 10.0084 15.2982 10.5004C15.2326 10.6317 15.2326 10.8613 15.2982 10.9925C15.331 11.0909 15.4622 11.2549 15.5279 11.1237Z" fill="#0A96E6"/>
<path d="M20.9393 11.9092C21.8249 10.8923 22.8418 9.90823 23.8915 9.05535C23.8915 9.12096 23.8587 9.21937 23.8587 9.28497C23.8259 9.48179 23.7931 9.71141 23.7603 9.90823C23.6947 10.3347 23.6291 10.7611 23.5635 11.1547C23.4323 11.9748 23.3339 12.8277 23.1699 13.6806C23.1371 13.8118 23.2683 14.3366 23.4323 14.107C24.2852 13.0245 25.2036 12.0404 26.2533 11.1547C26.483 10.9579 26.3845 10.105 26.0893 10.3675C25.2036 11.1547 24.3836 12.0076 23.6291 12.9261C23.7275 12.27 23.8259 11.614 23.9571 10.9579C24.0227 10.4659 24.1212 9.97383 24.1868 9.48179C24.2524 9.05535 24.318 8.62891 24.1211 8.23528C24.0883 8.16967 24.0227 8.07126 23.9243 8.13687C22.7762 9.08815 21.6937 10.1378 20.7425 11.2531C20.644 11.3844 20.644 11.614 20.6768 11.7452C20.7096 11.9092 20.8081 12.0404 20.9393 11.9092Z" fill="#0A96E6"/>
<path d="M20.8745 18.8959C21.1041 18.8303 21.3009 18.7975 21.5306 18.7319C21.957 18.6334 22.4162 18.535 22.8427 18.4366C23.3019 18.3382 23.7284 18.2398 24.1876 18.1414C24.614 18.043 25.1061 18.0102 25.5325 17.879C25.7293 17.8134 25.7293 17.1245 25.4669 17.1245C25.0733 17.1573 24.6796 17.2557 24.3188 17.3213C23.958 17.3869 23.5971 17.4853 23.2363 17.5509C22.4818 17.715 21.7602 17.879 21.0057 18.0758C20.9729 18.0758 20.9401 18.1086 20.9073 18.1086C21.1369 17.8134 21.3993 17.5509 21.629 17.2557C22.1538 16.6325 22.6459 16.042 23.1379 15.4188C23.2363 15.2875 23.2691 15.0579 23.2035 14.8939C23.1707 14.7955 23.0723 14.6315 22.9411 14.7627C22.3506 15.4844 21.7274 16.1732 21.1697 16.8949C20.9073 17.2229 20.5465 17.5509 20.3497 17.9446C20.2184 18.1742 20.12 18.6662 20.3497 18.8959C20.5137 18.9943 20.7105 18.9287 20.8745 18.8959Z" fill="#0A96E6"/>
<path d="M27.2057 13.3559C26.5168 13.4215 25.8279 13.4871 25.1063 13.5527C24.811 13.5855 24.8438 14.3728 25.1063 14.34C25.6967 14.2744 26.2872 14.2416 26.8776 14.176C27.1729 14.1432 27.4681 14.1104 27.7633 14.0776C27.8945 14.0776 28.0257 14.0448 28.1569 14.0448C28.1898 14.0448 28.1897 14.0448 28.2225 14.0448C28.2225 14.0776 28.2226 14.0776 28.1898 14.1104C28.1241 14.2416 28.0585 14.3728 27.9929 14.5368C27.8617 14.7992 27.7305 15.0289 27.5993 15.2913C27.4681 15.5537 27.3369 15.7833 27.2057 16.0457C27.0417 16.3082 26.8448 16.5706 26.7792 16.8986C26.7464 16.997 26.7792 17.3251 26.976 17.2595C27.1073 17.2267 27.2057 16.997 27.2713 16.8986C27.3369 16.7674 27.4353 16.6362 27.5009 16.505C27.6649 16.2098 27.8289 15.9473 27.9601 15.6521C28.0913 15.3569 28.2554 15.0617 28.3866 14.7664C28.485 14.5368 28.6162 14.3072 28.6818 14.0448C28.8786 13.9136 29.0754 13.7823 29.2722 13.6839C29.4035 13.6183 29.5347 13.5527 29.6659 13.4871C29.7315 13.4543 29.7971 13.4215 29.8955 13.3887C29.9939 13.3559 30.0595 13.3231 30.1251 13.2575C30.2235 13.1591 30.2235 12.9951 30.2235 12.8639C30.2235 12.7983 30.2235 12.7327 30.1907 12.667C30.1579 12.6342 30.1251 12.5358 30.0923 12.5358C30.0267 12.503 29.9939 12.503 29.9283 12.5358C29.8955 12.5358 29.8627 12.5686 29.7971 12.5686C29.7315 12.6014 29.6659 12.6342 29.6003 12.667C29.4691 12.7327 29.3051 12.7983 29.1738 12.8639C28.9114 12.9951 28.6818 13.1591 28.4522 13.3559C28.3866 13.3231 28.2882 13.2903 28.1898 13.2903C27.8945 13.2903 27.5665 13.3231 27.2057 13.3559Z" fill="#0A96E6"/>
<path d="M30.9764 12.6995C31.6652 12.1746 32.3869 11.7154 33.1742 11.3545C33.5678 11.1905 33.9286 11.0265 34.3223 10.8953C34.4863 10.8297 34.6831 10.7641 34.8471 10.6657C34.9127 10.6329 35.1424 10.4361 35.2408 10.4033C35.2736 10.4033 35.3064 10.4361 35.3392 10.4361C35.4704 10.4361 35.536 10.2392 35.536 10.1408C35.5688 9.94402 35.536 9.51758 35.2408 9.51758C35.0768 9.51758 34.9127 9.7472 34.7487 9.84561C34.3551 10.0752 33.863 10.2064 33.4366 10.3705C32.5181 10.7641 31.6324 11.2561 30.8452 11.8794C30.6812 12.0106 30.6812 12.2402 30.6812 12.4042C30.714 12.4698 30.8124 12.8307 30.9764 12.6995Z" fill="#0A96E6"/>
<path d="M26.1552 8.53206C26.4504 8.13842 26.7785 7.71199 27.1065 7.35115C27.4345 6.95752 27.8282 6.62949 28.1562 6.26866C28.2874 6.13745 28.2874 5.90782 28.2546 5.74381C28.2546 5.6782 28.1234 5.38298 27.9922 5.51419C27.5985 5.84222 27.2377 6.23586 26.8769 6.62949C26.5489 7.02313 26.2208 7.41676 25.9256 7.8432C25.7944 8.00721 25.7944 8.23683 25.86 8.43365C25.8928 8.46645 26.024 8.69607 26.1552 8.53206Z" fill="#0A96E6"/>
<path d="M16.3472 4.66119C16.3472 4.79241 16.4456 5.02203 16.6096 4.95642C16.7736 4.89081 16.7736 4.56278 16.7736 4.43157C16.6752 3.74271 16.6096 3.05385 16.544 2.36499C16.4784 1.67613 16.4784 0.987267 16.38 0.298406C16.38 0.199997 16.3144 -0.0296241 16.1503 0.00317884C15.9863 0.0359818 15.9863 0.298407 15.9863 0.396815C15.9863 1.11848 16.0847 1.84014 16.1503 2.529C16.1831 3.25067 16.2816 3.93953 16.3472 4.66119Z" fill="#0A96E6"/>
<path d="M9.94948 11.6487C9.85107 11.4847 9.68705 11.6815 9.65425 11.8127C9.58864 12.0096 9.62145 12.2392 9.71985 12.4032C10.1135 12.9608 10.5071 13.5513 10.868 14.1089C11.2616 14.6666 11.5896 15.257 12.0161 15.8147C12.0489 15.8475 12.0817 15.8803 12.1145 15.8803C12.1473 15.8803 12.1801 15.8803 12.1801 15.8803C12.3113 15.8475 12.3113 15.6507 12.3113 15.5195C12.2785 15.2899 12.2129 15.1258 12.0817 14.929C11.9833 14.765 11.8849 14.601 11.7536 14.4698C11.7208 14.4042 11.688 14.3714 11.6552 14.3058C11.7864 14.2402 11.8192 14.0105 11.8192 13.9121C11.852 13.6497 11.852 13.3873 11.8848 13.0921C11.9177 13.1577 11.9505 13.2561 12.0161 13.2889C12.4425 13.4201 12.8689 13.5841 13.2626 13.7153C13.689 13.8465 14.1154 14.0105 14.5419 14.1418C14.6731 14.1746 14.7387 13.9121 14.7387 13.8465C14.7715 13.6825 14.7387 13.5185 14.6403 13.3545C14.6075 13.2889 14.5747 13.2233 14.5091 13.1905C14.4435 13.1577 14.4107 13.1905 14.3779 13.2233C14.0498 13.0921 13.689 12.9936 13.361 12.8952C12.9345 12.764 12.5409 12.6328 12.1145 12.4688C12.0161 12.436 11.9505 12.5016 11.9177 12.5672C11.9505 12.3048 11.9505 12.0424 11.9833 11.7799C12.0161 11.4519 12.0489 11.0911 12.1145 10.763C12.1473 10.4022 12.2785 9.97578 12.1145 9.61495C12.0817 9.54934 12.0161 9.48373 11.9505 9.51654C11.8192 9.61495 11.7864 9.81176 11.7536 9.97578C11.7208 10.1726 11.7208 10.3366 11.688 10.5334C11.6552 10.8943 11.5896 11.2879 11.5568 11.6487C11.4912 12.4032 11.4256 13.1577 11.36 13.9121L11.0976 13.5185C10.7696 12.8624 10.3759 12.272 9.94948 11.6487Z" fill="#0A96E6"/>
<path d="M9.4911 8.72722C9.58951 8.89124 9.72072 9.05525 9.81913 9.21927C9.88473 9.31768 9.91754 9.38328 9.98314 9.48169C10.0487 9.5801 10.1144 9.71131 10.2128 9.74411C10.4096 9.84252 10.4424 9.41608 10.4424 9.31767C10.4096 9.15366 10.3768 9.02245 10.3112 8.89124C10.2456 8.79283 10.18 8.69442 10.1472 8.62881C10.0159 8.432 9.88474 8.23518 9.75352 8.03836C9.4911 7.67753 9.22868 7.3167 8.93345 6.98867C8.80224 6.85746 8.67103 7.02147 8.63823 7.15268C8.60542 7.3167 8.57262 7.57912 8.70383 7.74314C8.96626 8.03836 9.22868 8.36639 9.4911 8.72722Z" fill="#0A96E6"/>
<path d="M6.93317 15.8163C7.55643 16.538 8.08127 17.3581 8.67173 18.1453C8.77014 18.3093 8.93415 18.1125 8.96696 17.9813C9.03256 17.7845 8.99975 17.5549 8.90135 17.3909C8.60612 16.9972 8.31089 16.5708 8.01567 16.1771C7.85165 15.9803 7.68764 15.7507 7.55643 15.5211C7.91726 15.5211 8.31089 15.4883 8.67173 15.4555C8.90135 15.4227 9.13097 15.3899 9.36059 15.3571C9.4918 15.3243 9.59021 15.3243 9.72142 15.2915C9.75422 15.2915 9.85263 15.2587 9.88543 15.2587C9.95104 15.2259 10.0166 15.1275 10.0494 15.0618C10.1151 14.9306 10.1151 14.6354 10.0166 14.537C9.95104 14.5042 9.91824 14.4386 9.81983 14.4386C9.78703 14.4386 9.72142 14.4714 9.65581 14.4714C9.5246 14.5042 9.4262 14.537 9.29499 14.537C9.06536 14.5698 8.86855 14.6026 8.63893 14.6354C8.17969 14.701 7.72044 14.7338 7.2612 14.7338C7.16279 14.7338 7.09719 14.8322 7.06439 14.9634C6.80196 14.701 6.50674 14.5042 6.1459 14.4058C5.78507 14.2746 5.39144 14.1762 5.06341 13.9137C4.89939 13.7825 4.80098 14.1434 4.80098 14.209C4.76818 14.4058 4.80098 14.6026 4.965 14.7338C5.26022 14.9962 5.65386 15.0947 6.01469 15.2259C6.34272 15.3243 6.67075 15.5211 6.93317 15.8163Z" fill="#0A96E6"/>
<path d="M2.76687 13.452C2.93089 13.5176 3.0621 13.616 3.22612 13.6816C3.35733 13.7472 3.52134 13.8456 3.68536 13.8456C3.94778 13.8456 3.91498 13.2224 3.78377 13.0912C3.65255 12.96 3.48854 12.9272 3.32452 12.8288C3.16051 12.7632 3.0293 12.6976 2.86528 12.5991C2.57006 12.4351 2.27483 12.3039 1.97961 12.1399C1.38915 11.8119 0.831505 11.451 0.273855 11.0574C0.109841 10.959 0.0114308 11.2542 0.0114308 11.3526C-0.0213721 11.5166 0.0114308 11.7791 0.175445 11.8775C0.733095 12.2711 1.29074 12.6319 1.8812 12.96C2.17642 13.124 2.47165 13.288 2.76687 13.452Z" fill="#0A96E6"/>
<path d="M6.50722 20.0786C6.83525 20.177 6.86805 19.3242 6.60562 19.2585C6.17918 19.1273 5.81836 19.357 5.58874 19.7178C5.32631 20.1442 5.32631 20.7347 5.39192 21.2267C5.49032 22.014 5.68714 23.0637 6.57282 23.3261C6.99926 23.4573 7.4913 23.4573 7.91774 23.4245C8.34418 23.3917 8.77062 23.2605 9.09865 22.9981C9.82031 22.3748 10.0499 21.3579 9.91872 20.4395C9.88592 20.1442 9.78751 19.849 9.6563 19.5538C9.55789 19.3242 9.42667 19.0945 9.22986 18.9633C8.80342 18.7009 8.31138 18.9961 7.88494 18.7993C7.65532 18.7009 7.62252 19.0945 7.62252 19.2257C7.58971 19.685 7.62251 20.1442 7.68812 20.6035C7.72092 20.7347 7.78653 20.9643 7.95054 20.8987C8.11456 20.8331 8.11456 20.5051 8.11456 20.3739C8.08176 20.1442 8.04895 19.9146 8.04895 19.685C8.24577 19.7178 8.47539 19.685 8.67221 19.685C8.80342 19.685 8.96744 19.685 9.09865 19.7506C9.22986 19.849 9.29547 20.013 9.36107 20.1442C9.59069 20.7675 9.55789 21.4235 9.09865 21.9484C8.6066 22.506 7.91774 22.5388 7.22888 22.5388C6.90085 22.5388 6.54002 22.506 6.27759 22.2764C6.04797 22.0796 5.94957 21.8172 5.88396 21.5548C5.81835 21.2595 5.71994 20.8659 5.78555 20.5707C5.85116 20.2754 6.17919 19.9802 6.50722 20.0786Z" fill="#0A96E6"/>
<path d="M2.30754 21.2924C2.14353 21.2924 2.01231 21.3252 1.8483 21.358C1.52027 21.3908 1.22505 21.4564 0.92982 21.522C0.765805 21.5548 0.700195 21.7845 0.700195 21.9485C0.700195 22.0469 0.700199 22.1453 0.765805 22.2437C0.798608 22.2765 0.864214 22.3749 0.92982 22.3749C1.22505 22.3093 1.55307 22.2437 1.8483 22.2109C2.01231 22.1781 2.14353 22.1781 2.30754 22.1453C2.47156 22.1125 2.70118 22.1453 2.79959 21.9813C2.89799 21.8173 2.9308 21.5548 2.79959 21.3908C2.66837 21.2268 2.47156 21.2596 2.30754 21.2924Z" fill="#0A96E6"/>
<path d="M11.5585 16.6699C10.9352 16.5059 10.1808 16.5715 9.91835 17.2604C9.62312 18.0148 9.95115 18.7365 10.3776 19.3597C10.476 19.5237 10.64 19.3269 10.6728 19.1957C10.7384 18.9989 10.7056 18.7693 10.6072 18.6053C10.3776 18.2772 10.0168 17.7852 10.5416 17.5228C11.0336 17.2604 11.5913 17.49 12.0505 17.654C12.5754 17.818 13.1002 18.0148 13.6579 18.1788C13.9531 18.2772 14.2155 18.3756 14.5108 18.4413C14.6748 18.5069 14.9044 18.5397 14.97 18.7037C15.0684 18.9005 15.1996 18.8021 15.2652 18.6381C15.3636 18.31 15.2652 17.9492 14.97 17.7852C14.6748 17.6212 14.2811 17.5556 13.9531 17.4244C13.133 17.1619 12.3458 16.8667 11.5585 16.6699Z" fill="#0A96E6"/>
<path d="M24.7778 22.7026C24.4497 22.8994 23.9905 22.8338 23.6625 22.7354C22.6456 22.4402 21.6615 22.0138 20.743 21.4889C20.4806 21.3249 20.3822 22.1778 20.6446 22.309C21.2351 22.637 21.8583 22.9323 22.4816 23.1947C23.0392 23.4243 23.6297 23.6539 24.2201 23.6867C24.7778 23.7195 25.2042 23.4243 25.3354 22.8666C25.4994 22.1778 25.2042 21.5545 24.7778 21.0297C24.6466 20.8985 24.5154 21.0625 24.4826 21.1937C24.4169 21.3905 24.4498 21.5873 24.5482 21.7842C24.6794 21.981 24.8762 22.1778 24.9418 22.4402C24.9746 22.5386 24.909 22.637 24.7778 22.7026Z" fill="#0A96E6"/>
<path d="M27.4013 19.3588C27.4013 19.49 27.4341 19.7852 27.631 19.7852C27.795 19.7852 27.8278 19.4572 27.8606 19.3588C27.8606 19.0964 27.8606 18.8339 27.8606 18.5387C27.8606 18.2763 27.8278 17.9483 27.5325 17.8498C27.3357 17.7842 27.1061 17.8498 26.9093 17.8826C26.6141 17.9483 26.3516 17.9811 26.0564 18.0467C25.8268 18.1123 25.7612 18.3091 25.6956 18.5059C25.63 18.7683 25.5972 19.0636 25.5972 19.3588C25.5972 19.8508 25.7284 20.3757 25.958 20.8021C26.3844 21.5894 27.2045 22.147 28.123 22.147C29.0743 22.1142 29.96 21.5238 30.288 20.6381C30.4848 20.1461 30.452 19.5228 30.2224 19.0636C30.124 18.8667 29.96 18.6699 29.7959 18.5387C29.6975 18.4731 29.5991 18.4075 29.5007 18.3747C29.3695 18.3419 29.3039 18.3419 29.1727 18.3747C28.9431 18.4403 29.0087 18.9979 29.1727 19.0964C29.4351 19.2604 29.6975 19.2932 29.8944 19.5884C30.0256 19.7852 30.0584 19.982 29.96 20.1789C29.7303 20.8021 29.0415 21.1957 28.4182 21.2942C27.1061 21.491 25.8596 20.3757 26.0564 19.0308C26.0564 18.9979 26.0564 18.9651 26.0892 18.9323H26.122C26.2204 18.9323 26.3516 18.8995 26.45 18.8667C26.6797 18.8339 26.9093 18.7683 27.1061 18.7355C27.1717 18.7355 27.2701 18.7027 27.3685 18.7027C27.3685 18.7027 27.4013 18.7027 27.4341 18.7027C27.3685 18.8995 27.4013 19.1292 27.4013 19.3588Z" fill="#0A96E6"/>
<path d="M33.4055 20.4414C33.6679 20.4086 33.8975 20.3758 34.1599 20.343C34.2583 20.343 34.3239 20.343 34.4224 20.343C34.4552 20.343 34.488 20.343 34.5208 20.343C34.5536 20.343 34.5864 20.3758 34.6192 20.3758C34.7832 20.3758 34.7832 20.0806 34.7832 19.9822C34.7176 19.7198 34.5864 19.5229 34.3239 19.5229C34.0615 19.5229 33.7991 19.5886 33.5695 19.6214C33.0118 19.687 32.487 19.7854 31.9293 19.851C31.7653 19.8838 31.6997 20.1462 31.6997 20.2774C31.6997 20.3758 31.7325 20.7367 31.9293 20.7039L33.4055 20.4414Z" fill="#0A96E6"/>
<path d="M30.3866 26.4078C30.1898 26.3094 29.993 26.1782 29.7962 26.0798C29.4025 25.8502 29.0417 25.5877 28.7465 25.2597C28.4512 24.9317 28.2216 24.6036 27.992 24.21C27.7624 23.8164 27.5656 23.3899 27.2375 23.0619C27.1063 22.9307 26.9751 23.0947 26.9423 23.2259C26.9095 23.3899 26.8767 23.6852 27.0079 23.8164C27.336 24.1444 27.5 24.538 27.7296 24.9645C27.8608 25.1941 27.992 25.3909 28.1232 25.5877C27.9592 25.5877 27.828 25.6205 27.664 25.6205C27.2047 25.6533 26.7455 25.6861 26.2863 25.7189C26.1222 25.7189 26.0566 26.0142 26.0566 26.1454C26.0566 26.2438 26.0894 26.5718 26.2863 26.5718C26.7455 26.539 27.2375 26.5062 27.6968 26.4734C27.9264 26.4406 28.156 26.4406 28.3856 26.4078C28.484 26.4078 28.6153 26.375 28.7137 26.375C28.7793 26.375 28.8121 26.3422 28.8449 26.3422C29.0745 26.539 29.3369 26.7358 29.6322 26.8999C29.829 27.0311 30.0258 27.1295 30.2226 27.2279C30.4194 27.3263 30.6162 27.4903 30.8787 27.4575C31.1083 27.4247 31.0755 26.9655 30.9771 26.8342C30.8131 26.6374 30.6162 26.539 30.3866 26.4078Z" fill="#0A96E6"/>
<path d="M35.6994 29.1657C35.4698 28.9032 35.1089 28.7392 34.8137 28.5752C34.5185 28.4112 34.2233 28.2472 33.928 28.0832C33.3376 27.7551 32.7143 27.3943 32.1239 27.0663C31.8615 26.9023 31.763 27.7551 32.0255 27.8863C32.6159 28.2144 33.2392 28.5752 33.8296 28.9032C34.1249 29.0673 34.4201 29.2313 34.7153 29.3953C34.8465 29.4609 35.0105 29.5593 35.1417 29.6249C35.3058 29.7233 35.437 29.8217 35.6338 29.8217C35.8634 29.8217 35.7978 29.2641 35.6994 29.1657Z" fill="#0A96E6"/>
<path d="M29.0089 34.0837C28.9433 34.0181 28.8121 34.0181 28.7137 33.9853C28.6153 33.9525 28.5169 33.8869 28.4513 33.8213C28.2872 33.6901 28.156 33.4933 27.992 33.3292C27.6312 32.9356 27.2704 32.542 26.9095 32.1483C26.7783 32.0171 26.6471 32.1811 26.6143 32.3124C26.5815 32.4764 26.5487 32.7388 26.6799 32.9028C27.0735 33.3292 27.4344 33.7557 27.828 34.1821C27.992 34.3789 28.156 34.543 28.3529 34.707C28.4513 34.7726 28.5169 34.8382 28.6481 34.871C28.7137 34.9038 28.7793 34.9038 28.8121 34.9038C28.9105 34.9038 28.9433 34.871 29.0089 34.8054C29.1073 34.7398 29.1073 34.5429 29.1073 34.4445C29.1401 34.2805 29.1073 34.1821 29.0089 34.0837Z" fill="#0A96E6"/>
<path d="M25.7296 29.7202C26.0576 29.7202 26.4184 29.753 26.7465 29.753C27.1073 29.753 27.4681 29.8186 27.7962 29.7858C28.0914 29.753 28.0914 28.9986 27.7962 28.9658C27.4681 28.9002 27.0745 28.933 26.7465 28.933C26.4184 28.933 26.0576 28.9002 25.7296 28.9002C25.1391 28.8674 24.5487 28.8345 23.9582 28.8674V28.8346C23.991 28.5393 24.0238 28.2441 24.0566 27.9161C24.1222 27.3256 24.1878 26.7024 24.2862 26.1119C24.319 25.9479 24.319 25.6527 24.1222 25.5871C23.9582 25.5215 23.8598 25.7839 23.8598 25.8823C23.7942 26.4727 23.7286 27.096 23.6302 27.6864L23.5318 28.6049C23.5318 28.7361 23.499 28.8674 23.4662 28.9986C23.4334 29.0642 23.4006 29.1626 23.4006 29.261C22.8429 28.6377 22.3181 28.0145 21.7932 27.3584C21.662 27.1944 21.5308 27.3912 21.498 27.5224C21.4324 27.6864 21.4652 27.9489 21.5636 28.1129C22.0885 28.7689 22.6461 29.425 23.2038 30.0155C23.4662 30.3107 23.7614 30.6059 24.0566 30.9011C24.1878 31.0651 24.3519 31.1964 24.5159 31.3604C24.6471 31.4916 24.7783 31.6556 25.0079 31.7212C25.0407 31.7212 25.0735 31.6884 25.1063 31.6556C25.1391 31.6228 25.1719 31.59 25.1719 31.59C25.2703 31.4916 25.3031 31.0323 25.1391 30.9667C25.0735 30.9339 24.9751 30.8683 24.9095 30.8355C24.8439 30.7699 24.7783 30.7043 24.6799 30.6387C24.5487 30.5075 24.3847 30.3435 24.2534 30.2123C24.0894 30.0483 23.9254 29.8842 23.7942 29.7202V29.6874C24.4831 29.6874 25.1063 29.6874 25.7296 29.7202Z" fill="#0A96E6"/>
<path d="M18.4476 27.6217C18.546 27.6217 18.6444 27.5889 18.7428 27.5561C18.7756 27.5561 18.8084 27.5233 18.8412 27.4905C18.874 27.5889 18.9068 27.6545 18.9724 27.7529C19.0708 27.9169 19.1692 28.1137 19.2676 28.2777C19.3332 28.4417 19.4316 28.6058 19.5957 28.6386C19.7597 28.6714 19.7597 28.2777 19.7597 28.2121C19.7269 27.8185 19.4645 27.4905 19.3004 27.1296C19.1364 26.8016 18.9724 26.4736 18.8084 26.1127C18.5132 25.4239 18.2179 24.735 17.9883 24.0462C17.9555 23.9805 17.9227 23.9149 17.8571 23.8821V23.8493C17.7915 23.7181 17.6275 23.6853 17.5619 23.8493C17.2667 24.571 16.9714 25.2599 16.6762 25.9815C16.545 26.3424 16.4138 26.7032 16.2498 27.064C16.1186 27.4248 15.9217 27.8185 15.8561 28.2121C15.8233 28.3433 15.8561 28.5073 15.9217 28.6386C15.9873 28.7042 16.0857 28.7698 16.1514 28.6714C16.3482 28.3761 16.4466 27.9825 16.5778 27.6217C16.5778 27.5889 16.6106 27.5561 16.6106 27.5561C16.6434 27.5889 16.6762 27.5889 16.709 27.6217C17.1026 27.6873 17.4963 27.7201 17.8899 27.7201C18.0539 27.6873 18.2507 27.6545 18.4476 27.6217ZM16.9058 26.7688C16.9386 26.7032 16.9714 26.6376 16.9714 26.572C17.201 25.9815 17.4635 25.3911 17.6931 24.8006C17.9227 25.4567 18.1523 26.1127 18.4476 26.736C18.4476 26.736 18.4476 26.7688 18.4804 26.7688C18.4476 26.7688 18.4148 26.7688 18.382 26.7688C18.1851 26.8016 18.0211 26.8016 17.8243 26.8016C17.5291 26.8344 17.201 26.8016 16.9058 26.7688Z" fill="#0A96E6"/>
<path d="M20.6778 29.9536C20.4153 30.3473 20.1857 30.7409 19.9233 31.1345C19.6937 31.4626 19.464 31.7906 19.3328 32.1514C19.2672 32.3154 19.2344 32.4467 19.2016 32.6107C19.2016 32.6107 19.2016 32.5779 19.1688 32.5779C19.0704 32.4795 19.0048 32.381 18.9392 32.2826C18.808 32.0858 18.644 31.9218 18.5456 31.6922C18.2831 31.2657 18.1191 30.8393 17.9879 30.3801C17.9551 30.2489 17.8239 30.0848 17.6927 30.2161C17.5615 30.3473 17.5615 30.6425 17.6271 30.8065C17.7583 31.2985 17.9551 31.7578 18.2175 32.217C18.3487 32.4466 18.48 32.6435 18.644 32.8403C18.7752 33.0371 18.9392 33.2339 19.136 33.3979C19.1688 33.4307 19.1688 33.4307 19.2016 33.4307C19.2016 33.8572 19.136 34.3492 19.2344 34.7757C19.3 35.0053 19.4968 35.0053 19.5624 34.7757C19.6937 34.4148 19.6281 33.9228 19.6281 33.5291C19.6281 33.1683 19.6281 32.8403 19.7921 32.5123C19.9561 32.1842 20.1857 31.889 20.3825 31.561C20.6121 31.2001 20.8418 30.8393 21.0714 30.5113C21.1698 30.3473 21.1698 30.052 21.0714 29.9208C20.9074 29.7896 20.7762 29.7896 20.6778 29.9536Z" fill="#0A96E6"/>
<path d="M19.5949 35.6256C19.4309 35.56 19.3325 35.8224 19.3325 35.9209C19.2341 36.6425 19.1685 37.3314 19.1685 38.053C19.1685 38.4139 19.1685 38.7419 19.2013 39.1027C19.2341 39.4636 19.2013 39.8572 19.3325 40.218C19.3653 40.3165 19.4309 40.4477 19.5621 40.4149C19.6933 40.3493 19.6933 40.1524 19.6933 40.0212C19.7261 39.6932 19.6277 39.3652 19.6277 39.0371C19.6277 38.7091 19.5949 38.3811 19.5949 38.0859C19.5949 37.4298 19.6605 36.8065 19.7261 36.1833C19.7589 35.9865 19.7589 35.6912 19.5949 35.6256Z" fill="#0A96E6"/>
<path d="M15.3621 28.4127C14.7061 28.8391 14.214 29.5608 13.7876 30.2168C13.558 30.5449 13.3612 30.9057 13.1971 31.2665C13.0659 31.5618 12.9675 31.857 12.7707 32.1194C12.7051 31.7914 12.7707 31.3977 12.7707 31.0697C12.7707 30.6105 12.8035 30.1184 12.8035 29.6592C12.8035 28.7079 12.7707 27.7238 12.6723 26.7725C12.6723 26.6413 12.5083 26.3133 12.3443 26.5101C11.3602 27.7566 10.5073 29.1343 9.81844 30.5777C9.72003 30.7417 9.72003 31.0041 9.81844 31.1681C9.88404 31.2993 10.0481 31.3321 10.1137 31.1681C10.7041 29.9216 11.4258 28.7079 12.2787 27.5926C12.3115 28.4127 12.3443 29.2656 12.3443 30.0856C12.3443 30.5777 12.3115 31.1025 12.3115 31.5946C12.3115 32.0538 12.3115 32.5458 12.5411 32.9723C12.6067 33.1035 12.7051 33.1363 12.8035 33.0379C13.0987 32.7755 13.2299 32.4146 13.394 32.0538C13.558 31.693 13.722 31.3321 13.9516 30.9713C14.1484 30.6433 14.378 30.3152 14.6405 30.02C14.9029 29.692 15.2309 29.4296 15.5261 29.1015C15.6246 28.9703 15.6574 28.7407 15.6246 28.6095C15.5917 28.5767 15.4933 28.3471 15.3621 28.4127Z" fill="#0A96E6"/>
<path d="M10.7712 33.3647C10.7056 33.3647 10.64 33.4304 10.6072 33.496C10.4104 33.824 10.2463 34.152 10.0495 34.4472C9.8527 34.7425 9.65589 35.0705 9.49187 35.3985C9.39347 35.5625 9.42627 35.7922 9.45907 35.9562C9.49188 36.0546 9.62308 36.2186 9.72149 36.0546C9.91831 35.7266 10.1151 35.3985 10.3119 35.0377C10.5088 34.7097 10.6728 34.3816 10.8696 34.0536C10.968 33.8896 10.968 33.6272 10.8696 33.4632C10.8696 33.4304 10.8368 33.3647 10.7712 33.3647Z" fill="#0A96E6"/>
<path d="M12.2791 24.6049C12.0167 24.9329 11.6886 25.2281 11.459 25.589C11.3606 25.753 11.3278 25.9826 11.3934 26.1466C11.4262 26.2778 11.5246 26.409 11.6886 26.2778C11.9511 26.0482 12.1807 25.7202 12.4103 25.4578C12.6399 25.1625 12.8695 24.9001 13.0992 24.6049C13.5584 24.0144 13.9848 23.424 14.4113 22.8335C14.6081 22.5711 14.8377 22.2759 14.9361 21.9806C15.0017 21.7182 15.0345 21.2262 14.7393 21.095C14.6081 21.0294 14.4441 21.095 14.3129 21.1278C14.1161 21.1934 13.9192 21.259 13.7224 21.2918C13.3616 21.3902 13.0008 21.5214 12.6071 21.6198L10.1141 22.3743C9.85168 22.4399 9.91729 23.2928 10.2125 23.1944C11.0326 22.9319 11.8527 22.7023 12.6727 22.4399C13.0664 22.3087 13.46 22.2103 13.8536 22.0791C13.952 22.0462 14.0833 22.0134 14.1817 21.9806C13.788 22.5383 13.3944 23.0959 13.0008 23.6208C12.8039 23.9816 12.5415 24.3097 12.2791 24.6049Z" fill="#0A96E6"/>
<path d="M10.2454 26.9012C9.7534 26.934 9.29416 26.9996 8.80212 27.0324C8.6053 27.0653 8.40848 27.0653 8.17886 27.0981C8.04765 27.0981 7.91644 27.0981 7.81803 27.0981C7.94924 26.8684 8.11325 26.6388 8.24446 26.4092C8.47408 26.0156 8.70371 25.5891 8.93333 25.1627C9.03174 24.9987 9.03174 24.7362 8.93333 24.5722C8.86772 24.4082 8.70371 24.4082 8.6381 24.5722C8.24447 25.2939 7.81803 26.0156 7.39159 26.7044C7.29318 26.8684 7.19477 26.9996 7.12917 27.1637C6.86674 27.2621 6.66992 27.4589 6.4403 27.5901C6.24349 27.7213 6.04667 27.8853 5.88265 28.0165C5.68584 28.1477 5.48902 28.279 5.39061 28.5086C5.32501 28.6398 5.29221 29.1646 5.52183 29.1318C5.71864 29.099 5.91546 28.9022 6.07947 28.771C6.24349 28.6398 6.4075 28.5086 6.57152 28.4102C6.73553 28.279 6.89954 28.1805 7.09636 28.0493C7.29318 27.9181 7.45719 27.9181 7.68682 27.9181C8.11325 27.9837 8.50689 27.9181 8.93333 27.8853C9.39257 27.8525 9.81901 27.8197 10.2782 27.7541C10.5407 27.7213 10.5079 26.8684 10.2454 26.9012Z" fill="#0A96E6"/>
<path d="M4.20992 28.8032C3.88189 28.9344 3.58666 29.0985 3.29144 29.2625C2.96341 29.4265 2.63537 29.5905 2.34015 29.7545C1.71689 30.0825 1.09364 30.3778 0.437583 30.7058C0.17516 30.837 0.273564 31.6571 0.535988 31.5259C1.15924 31.1978 1.7825 30.9026 2.43856 30.5746C3.06181 30.2466 3.71787 29.9841 4.34113 29.6233C4.57075 29.4921 4.53795 28.672 4.20992 28.8032Z" fill="#0A96E6"/>
</svg>
