<svg width="48" height="55" viewBox="0 0 48 55" fill="none" xmlns="http://www.w3.org/2000/svg">
<path d="M26.3506 40.7077C25.9006 39.9977 25.4406 39.2877 24.9906 38.5677C24.7606 38.2077 24.5406 37.8577 24.3106 37.4977C24.0806 37.1377 23.8706 36.7477 23.5906 36.4177C23.4406 36.2377 23.4006 36.7177 23.4406 36.8077C23.8106 37.5677 24.3306 38.2677 24.7806 38.9777C25.2406 39.7077 25.7006 40.4377 26.1706 41.1677C27.0806 42.6077 28.0006 44.0477 28.9106 45.4977C29.0906 45.7777 29.2206 45.2377 29.1206 45.0777C28.2006 43.6177 27.2706 42.1677 26.3506 40.7077Z" fill="#90D5DC"/>
<path d="M24.6105 34.2977C24.2705 33.8277 23.9405 33.3377 23.5705 32.8877C23.2605 32.5077 22.8905 32.1377 22.4105 31.9877C21.4705 31.6877 20.4705 32.1977 19.8805 32.9177C19.1805 33.7577 18.8705 34.8377 18.5205 35.8477C18.1005 37.0677 17.6705 38.2777 17.2505 39.4977C16.2905 42.2677 15.3205 45.0277 14.3605 47.7977C14.2905 48.0077 14.4905 48.4677 14.6205 48.0977C14.7205 47.7977 14.8305 47.4977 14.9305 47.1977C14.9205 47.2777 14.9205 47.3677 14.9405 47.4377C14.9705 47.5177 15.0505 47.6477 15.1405 47.5377C15.1405 47.5277 15.1605 47.5177 15.1705 47.5077C15.1705 47.6677 15.2305 47.8577 15.3505 47.7377C15.5305 47.5577 15.7005 47.3077 15.7405 47.0577C15.9105 46.7577 16.0805 46.4677 16.2505 46.1677C16.2805 46.1077 16.2805 45.9277 16.2405 45.7977C16.3005 45.8777 16.3905 45.8977 16.4405 45.7777C17.1205 44.1177 17.7905 42.4577 18.4705 40.7977C18.8005 39.9877 19.1305 39.1677 19.4605 38.3577C19.7105 37.7377 19.9905 37.1177 20.2305 36.4877C20.3005 36.4777 20.3705 36.4677 20.4405 36.4577C20.4405 36.5977 20.5705 36.8277 20.6405 36.5877C20.6405 36.5577 20.6405 36.5177 20.6605 36.4877C20.6605 36.5977 20.6905 36.7177 20.7805 36.6877C20.8605 36.6577 20.9405 36.6277 21.0205 36.5977C20.6005 37.2877 20.3105 38.0777 20.0005 38.8177C19.6705 39.5777 19.3605 40.3477 19.0605 41.1177C18.4505 42.6677 17.9005 44.2377 17.3905 45.8177C17.3605 45.9177 17.3505 46.1277 17.4405 46.2077C17.5405 46.2877 17.6005 46.2077 17.6405 46.1077C18.1505 44.5177 18.7205 42.9477 19.3305 41.3877C19.6305 40.6277 19.9305 39.8777 20.2505 39.1277C20.5805 38.3577 20.9705 37.6077 21.2405 36.8077C21.2605 36.7477 21.2405 36.6077 21.2105 36.5377C21.4405 36.4577 21.6605 36.3677 21.8905 36.2877C21.6905 36.8477 21.5305 37.4277 21.3405 37.9877C21.0505 38.8377 20.7505 39.6977 20.4505 40.5377C19.8305 42.2277 19.1705 43.8977 18.4705 45.5577C18.4205 45.6777 18.4005 45.8577 18.4705 45.9777C18.5305 46.0677 18.6305 46.0977 18.6805 45.9777C19.3805 44.3277 20.0405 42.6677 20.6605 40.9777C20.9605 40.1477 21.2605 39.3077 21.5405 38.4777C21.7705 37.8077 22.0105 37.1477 22.1905 36.4677C22.2705 36.5677 22.3505 36.6777 22.4305 36.7777C22.9105 37.4077 23.3605 38.0477 23.8005 38.7077C24.6905 40.0477 25.4805 41.4377 26.1805 42.8777C26.5705 43.6877 26.9405 44.5077 27.2705 45.3377C27.3205 45.4577 27.4205 45.4277 27.4805 45.3377C27.5505 45.2177 27.5305 45.0377 27.4805 44.9177C26.2205 41.7777 24.5305 38.8077 22.4705 36.1277C22.4905 36.1177 22.5105 36.0977 22.5205 36.0777C22.8805 35.9577 23.2505 35.8577 23.6105 35.7477C23.6305 35.7477 23.6505 35.7277 23.6605 35.7077C23.8405 35.8177 23.9605 36.0377 24.0805 36.2077C24.3705 36.6477 24.6605 37.0977 24.9505 37.5377C25.5505 38.4577 26.1505 39.3777 26.7505 40.2977C27.8305 41.9477 28.9105 43.6077 29.9905 45.2577C29.9705 45.3977 29.9905 45.5977 30.0405 45.6577C30.0905 45.7177 30.1505 45.7577 30.2205 45.7577C30.9405 46.1377 31.4505 46.8477 31.5305 47.6677C31.5605 47.9677 31.8105 47.8477 31.8005 47.5977C31.7505 46.7177 31.3305 45.9077 30.6305 45.3977C30.7205 45.0077 30.5005 44.6677 30.3105 44.3377C29.9505 43.7277 29.6005 43.1077 29.2405 42.4977C29.3105 42.4777 29.3405 42.3977 29.3505 42.3177C30.2805 43.9077 31.1805 45.5277 32.0205 47.1677C32.0805 47.2777 32.1705 47.2677 32.2305 47.1677C32.3005 47.0577 32.2905 46.8577 32.2305 46.7477C30.0005 42.4277 27.4705 38.2677 24.6405 34.3177L24.6105 34.2977ZM26.3305 37.8077C26.4005 37.8577 26.4605 37.9177 26.5305 37.9677C26.5705 37.9977 26.6005 37.9877 26.6205 37.9577C27.1105 38.7077 27.6005 39.4577 28.0705 40.2177C28.1205 40.2977 28.1705 40.3877 28.2205 40.4777C28.0705 40.3977 27.9005 40.3377 27.7305 40.3077C27.5205 39.8777 27.2705 39.4577 26.9805 39.0777C26.9705 39.0277 26.9505 38.9777 26.9405 38.9577C26.6705 38.5777 26.4305 38.1777 26.2305 37.7577C26.2605 37.7777 26.3005 37.7977 26.3305 37.8177V37.8077ZM22.7905 33.9477C22.6605 33.7977 22.5005 33.6877 22.3205 33.6477C22.3205 33.6077 22.3005 33.5677 22.2905 33.5377C22.2905 33.5277 22.2905 33.5177 22.2805 33.4977C22.3005 33.4977 22.3205 33.4977 22.3405 33.4877C22.5305 33.4677 22.7105 33.4277 22.8905 33.4877C22.9605 33.5177 23.0405 33.5477 23.1105 33.5877C23.1405 33.6077 23.1605 33.6277 23.1805 33.6477C23.1205 33.6977 23.0505 33.7577 23.0105 33.6877C22.9605 33.5977 22.8805 33.5977 22.8305 33.6877C22.7905 33.7477 22.7805 33.8477 22.8005 33.9377L22.7905 33.9477ZM17.0905 40.9977C17.2205 40.6377 17.3405 40.2777 17.4705 39.9177C17.4705 40.0677 17.5005 40.2677 17.5905 40.2477C17.1905 41.0477 16.8205 41.8577 16.6105 42.7277C16.6105 42.7477 16.6105 42.7777 16.6105 42.8177C16.4805 43.0177 16.3605 43.2177 16.2505 43.4277C16.5305 42.6177 16.8105 41.8077 17.0905 40.9977ZM15.7705 45.8077C15.6705 46.0177 15.5605 46.2177 15.4405 46.4177C15.3605 46.3877 15.2805 46.3877 15.2105 46.4177C15.4705 45.6677 15.7305 44.9077 16.0005 44.1577C16.0105 44.2277 16.0305 44.2877 16.0605 44.3177C16.0505 44.3477 16.0305 44.3777 16.0205 44.4077C15.8905 44.6977 15.7005 45.0077 15.6605 45.3277C15.6405 45.4777 15.6605 45.6977 15.7805 45.8177L15.7705 45.8077ZM20.2305 35.5277C19.8505 36.3077 19.5705 37.1377 19.2405 37.9377C18.9005 38.7677 18.5605 39.5977 18.2305 40.4277C17.5605 42.0677 16.8905 43.7177 16.2205 45.3577C16.2205 45.3777 16.2105 45.3977 16.2005 45.4177C16.1705 45.2877 16.0905 45.1577 16.0105 45.2577C16.0205 45.2377 16.0305 45.2077 16.0405 45.1877C16.1105 45.0277 16.1805 44.8777 16.2505 44.7177C16.3905 44.3977 16.5305 44.0877 16.6705 43.7677C16.6905 43.7177 16.7005 43.5377 16.6705 43.4177C16.8605 43.1177 17.0505 42.8277 17.2705 42.5477C17.3505 42.4477 17.3605 42.2777 17.3205 42.1677C17.3005 42.0977 17.2305 42.0077 17.1605 42.0477C17.5005 41.1477 17.9605 40.2977 18.4005 39.4277C18.4405 39.3577 18.4305 39.0777 18.3605 38.9877C18.6005 38.6377 18.8605 38.2977 19.1505 37.9777C19.2305 37.8877 19.2305 37.3677 19.0405 37.4677C18.9305 37.5377 18.8105 37.5977 18.7005 37.6677C18.7605 37.4077 18.8805 37.1777 19.0505 36.9677C19.1005 36.9677 19.1605 36.9477 19.2205 36.9077C19.3905 36.7677 19.4005 36.4377 19.2505 36.2777C19.2405 36.2677 19.2305 36.2677 19.2205 36.2577C19.3005 36.1277 19.3905 35.9977 19.4705 35.8577C19.5205 35.7777 19.5805 35.6877 19.6305 35.5977C19.8005 35.4177 19.9305 35.1977 20.0205 34.9677C20.0205 34.9677 20.0205 34.9577 20.0205 34.9477C20.0205 34.9677 20.0405 34.9877 20.0505 35.0077C20.1005 35.0777 20.1705 35.0677 20.2105 34.9877C20.2505 34.9077 20.3005 34.8277 20.3505 34.7477C20.2705 34.9777 20.2205 35.2177 20.2205 35.4577C20.2205 35.4777 20.2205 35.5077 20.2205 35.5277H20.2305ZM20.4305 34.0177C20.4505 33.9077 20.4805 33.8077 20.4905 33.6977C20.5005 33.6077 20.4905 33.4477 20.4105 33.3877C20.3305 33.3277 20.2705 33.4177 20.2505 33.4977C20.1905 33.7377 20.1405 33.9877 20.1005 34.2277C19.6205 34.5177 19.2605 34.9777 19.0605 35.5277C19.0505 35.5577 19.0505 35.6577 19.0605 35.7477C18.8905 36.0177 18.7105 36.2977 18.7705 36.6277C18.4905 37.0377 18.3505 37.5377 18.3605 38.0377C18.3605 38.0677 18.3705 38.1477 18.4005 38.2177C18.0905 38.6377 17.8105 39.0877 17.5805 39.5577C17.8205 38.8677 18.0605 38.1677 18.3005 37.4777C18.6805 36.3777 19.0005 35.2077 19.5305 34.1677C19.9805 33.2877 20.7805 32.4877 21.8305 32.4777C22.3505 32.4777 22.7505 32.7077 23.1005 33.0377C23.1005 33.0377 23.0805 33.0277 23.0805 33.0177C22.9805 32.9677 22.8705 32.9077 22.7605 32.8877C22.6405 32.8677 22.5005 32.8877 22.3805 32.8977C21.6105 32.9977 20.9105 33.4077 20.4305 34.0077V34.0177ZM22.9805 35.2677C22.8705 35.2877 22.7605 35.3077 22.6605 35.3177C22.5905 35.2277 22.5005 35.1777 22.3805 35.1777C22.2105 35.1777 22.0305 35.2477 21.8605 35.2977C21.8505 35.2977 21.8405 35.2977 21.8205 35.3077C21.6905 35.1477 21.5305 35.0077 21.3305 34.9677C21.4005 34.8177 21.4405 34.6677 21.4705 34.5077C21.4705 34.7377 21.5305 34.9577 21.6905 35.1077C21.7205 35.1377 21.7605 35.1677 21.8005 35.1377C22.1105 34.9277 22.3005 34.5977 22.3505 34.2377C22.5905 34.3077 22.7705 34.5377 22.8205 34.7777C22.8305 34.8377 22.8805 34.9177 22.9505 34.9277C23.0905 34.9477 23.2205 34.9877 23.3405 35.0277C23.1805 35.0477 23.0605 35.1377 22.9805 35.2677ZM24.1105 34.8577C24.1105 34.8577 24.0805 34.8777 24.0605 34.8777C23.7805 34.5977 23.4305 34.4277 23.0305 34.3477C23.0105 34.2877 22.9805 34.2377 22.9505 34.1777C23.0405 34.2177 23.1405 34.2177 23.2405 34.1477C23.4305 34.0177 23.5005 33.7777 23.4805 33.5577C23.4805 33.4977 23.4605 33.4377 23.4305 33.3877C23.6905 33.6977 23.9105 34.0477 24.1305 34.3477C24.2705 34.5377 24.4005 34.7277 24.5405 34.9177C24.4005 34.8377 24.2505 34.7977 24.1005 34.8377L24.1105 34.8577ZM24.5705 36.2577L24.2805 35.8077C24.2805 35.8077 24.2605 35.7777 24.2505 35.7577C24.2905 35.7377 24.3205 35.7077 24.3505 35.6477C24.3805 35.5977 24.3905 35.5277 24.3905 35.4677C24.5305 35.5177 24.6605 35.6177 24.7605 35.7177C24.8605 35.8077 24.9405 35.9077 25.0205 36.0177C24.9205 35.9777 24.8205 35.9277 24.7305 35.8577C24.6105 35.7677 24.5505 36.0477 24.5805 36.2477L24.5705 36.2577ZM26.2305 38.7977C25.7305 38.0277 25.2305 37.2677 24.7305 36.4977C25.0605 36.7677 25.3805 37.0277 25.7105 37.2977C25.7105 37.3777 25.7105 37.4477 25.7305 37.4777C25.8805 37.8577 26.0505 38.2177 26.2405 38.5677C26.2405 38.6077 26.2305 38.6377 26.2305 38.6577C26.2305 38.6977 26.2305 38.7477 26.2305 38.7877V38.7977ZM29.5305 43.8277C29.5705 43.9077 29.6205 43.9777 29.6605 44.0577L26.6505 39.4577C26.6505 39.4577 26.7205 39.4877 26.7705 39.4977C26.8905 39.6577 27.0105 39.8177 27.1205 39.9877C27.2205 40.1477 27.3105 40.3077 27.4005 40.4677C27.4705 40.6077 27.5205 40.8277 27.6705 40.8877C27.8305 40.9577 28.0005 40.9677 28.1605 41.0477C28.3105 41.1277 28.4505 41.2277 28.5805 41.3477C28.7405 41.4977 28.8605 41.6777 28.9405 41.8777C28.8605 41.8377 28.7905 41.7777 28.7405 41.6777C28.6805 41.5677 28.6005 41.5777 28.5305 41.6777C28.4605 41.7877 28.4805 41.9777 28.5305 42.0977C28.8705 42.6777 29.2005 43.2577 29.5405 43.8377L29.5305 43.8277Z" fill="#90D5DC"/>
<path d="M10.8005 41.2278C11.6005 39.6978 12.4005 38.1678 13.2005 36.6378C13.5905 35.8878 13.9805 35.1378 14.3705 34.3878C14.5705 34.0178 14.7605 33.6378 14.9605 33.2678C15.1605 32.8878 15.3905 32.5078 15.5305 32.1078C15.6105 31.8878 15.1805 32.0978 15.1205 32.1678C14.6505 32.8678 14.3005 33.6678 13.9105 34.4178C13.5105 35.1778 13.1105 35.9478 12.7105 36.7078C11.9205 38.2178 11.1305 39.7378 10.3405 41.2478C10.1805 41.5478 10.7205 41.3878 10.8105 41.2178L10.8005 41.2278Z" fill="#90D5DC"/>
<path d="M18.5906 30.3177C18.7706 29.8577 18.9006 29.3577 18.7906 28.8677C18.5806 27.9077 17.6406 27.2977 16.7206 27.1377C15.6506 26.9577 14.5506 27.2277 13.5006 27.4277C12.2306 27.6677 10.9706 27.9077 9.70061 28.1577C6.82061 28.7077 3.9406 29.2577 1.0706 29.8077C0.850604 29.8477 0.560614 30.2577 0.940614 30.1777C1.25061 30.1177 1.56061 30.0577 1.87061 29.9977C1.79061 30.0277 1.72061 30.0677 1.67061 30.1277C1.61061 30.1877 1.55061 30.3277 1.67061 30.3477C1.68061 30.3477 1.7006 30.3477 1.7106 30.3477C1.5706 30.4377 1.4406 30.5777 1.6006 30.6177C1.8506 30.6877 2.14061 30.7077 2.39061 30.6177C2.73061 30.6177 3.07062 30.6177 3.41062 30.6177C3.48062 30.6177 3.63061 30.5177 3.72061 30.4277C3.68061 30.5177 3.71061 30.6077 3.83061 30.5877C5.61061 30.3477 7.38062 30.0977 9.16061 29.8577C10.0306 29.7377 10.9006 29.6177 11.7706 29.4977C12.4306 29.4077 13.1106 29.3377 13.7806 29.2277C13.8206 29.2777 13.8706 29.3377 13.9106 29.3877C13.7906 29.4677 13.6506 29.6877 13.9006 29.6277C13.9306 29.6277 13.9606 29.5977 14.0006 29.5877C13.9006 29.6377 13.8206 29.7277 13.8906 29.7877C13.9506 29.8477 14.0206 29.8977 14.0906 29.9577C13.2806 29.9377 12.4506 30.0877 11.6606 30.1777C10.8406 30.2777 10.0206 30.3877 9.20061 30.5077C7.56061 30.7577 5.9206 31.0577 4.2906 31.4077C4.1806 31.4277 4.00061 31.5277 3.98061 31.6477C3.96061 31.7777 4.07061 31.7877 4.17061 31.7677C5.80061 31.4177 7.4506 31.1177 9.1006 30.8677C9.9006 30.7477 10.7106 30.6377 11.5206 30.5377C12.3506 30.4377 13.2006 30.3977 14.0206 30.2377C14.0806 30.2277 14.1906 30.1477 14.2406 30.0677C14.4306 30.2177 14.6106 30.3777 14.8006 30.5277C14.2206 30.6377 13.6306 30.7777 13.0506 30.8977C12.1706 31.0777 11.2806 31.2477 10.3906 31.3977C8.62061 31.7077 6.84061 31.9677 5.05061 32.1877C4.92061 32.2077 4.75061 32.2777 4.69061 32.3977C4.64061 32.4977 4.66061 32.5977 4.80061 32.5777C6.58061 32.3577 8.35061 32.0977 10.1206 31.7877C10.9906 31.6377 11.8606 31.4777 12.7306 31.2977C13.4206 31.1577 14.1206 31.0377 14.8006 30.8577C14.7506 30.9777 14.7006 31.1077 14.6506 31.2277C14.3506 31.9577 14.0206 32.6677 13.6706 33.3777C12.9606 34.8177 12.1406 36.1977 11.2506 37.5277C10.7506 38.2677 10.2206 38.9977 9.66061 39.6977C9.58062 39.7977 9.66062 39.8777 9.77062 39.8777C9.91062 39.8777 10.0506 39.7677 10.1306 39.6677C12.2206 37.0077 13.9406 34.0577 15.2406 30.9277C15.2606 30.9277 15.2806 30.9377 15.3106 30.9477C15.5906 31.1977 15.8706 31.4677 16.1406 31.7277C16.1506 31.7377 16.1706 31.7477 16.2006 31.7477C16.2006 31.9577 16.0706 32.1777 15.9706 32.3577C15.7306 32.8277 15.4906 33.3077 15.2506 33.7777C14.7506 34.7577 14.2606 35.7377 13.7606 36.7177C12.8706 38.4777 11.9806 40.2377 11.0906 42.0077C10.9506 42.0577 10.8006 42.1877 10.7706 42.2477C10.7406 42.3277 10.7406 42.3977 10.7706 42.4577C10.8006 43.2677 10.4406 44.0677 9.77062 44.5477C9.52062 44.7277 9.75061 44.8777 9.97061 44.7377C10.7106 44.2577 11.2006 43.4877 11.2906 42.6277C11.6706 42.5077 11.8606 42.1477 12.0406 41.8277C12.3906 41.2077 12.7506 40.5977 13.1006 39.9777C13.1506 40.0277 13.2406 40.0177 13.3106 39.9777C12.4006 41.5777 11.4506 43.1577 10.4506 44.7177C10.3806 44.8277 10.4506 44.8977 10.5606 44.8977C10.6906 44.8977 10.8606 44.7877 10.9206 44.6877C13.5506 40.5977 15.8806 36.3177 17.8906 31.8977C18.1306 31.3677 18.3806 30.8377 18.5906 30.2877V30.3177ZM11.9706 28.0677C13.1206 27.8477 14.2906 27.5377 15.4506 27.4777C16.4306 27.4277 17.5306 27.7177 18.0606 28.6177C18.3206 29.0577 18.3206 29.5277 18.2106 29.9977C18.2106 29.9977 18.2106 29.9777 18.2106 29.9677C18.2106 29.8577 18.2006 29.7277 18.1606 29.6277C18.1206 29.5177 18.0306 29.3977 17.9606 29.3077C17.4906 28.6877 16.7806 28.2877 16.0206 28.1677C16.1206 28.1377 16.2206 28.1077 16.3306 28.0677C16.4106 28.0377 16.5506 27.9477 16.5606 27.8477C16.5606 27.7477 16.4606 27.7377 16.3906 27.7577C16.1506 27.8277 15.9206 27.9077 15.6806 27.9877C15.1906 27.7177 14.6106 27.6277 14.0306 27.7377C14.0006 27.7377 13.9106 27.7877 13.8406 27.8477C13.5206 27.8377 13.1906 27.8177 12.9306 28.0377C12.4306 27.9977 11.9406 28.1277 11.5006 28.3877C11.4706 28.4077 11.4106 28.4577 11.3606 28.5077C10.8406 28.4477 10.3206 28.4377 9.7906 28.4677C10.5106 28.3277 11.2306 28.1877 11.9606 28.0577L11.9706 28.0677ZM17.5106 30.0777C17.4406 30.0777 17.3506 30.1177 17.2806 30.1677C17.3406 29.9777 17.3606 29.7877 17.3106 29.6177C17.3406 29.5877 17.3706 29.5677 17.3906 29.5377C17.3906 29.5377 17.4106 29.5177 17.4206 29.5077C17.4306 29.5177 17.4506 29.5377 17.4606 29.5477C17.5806 29.6977 17.7006 29.8377 17.7306 30.0277C17.7406 30.1077 17.7506 30.1877 17.7506 30.2677C17.7506 30.2977 17.7506 30.3277 17.7406 30.3577C17.6706 30.3377 17.5806 30.2977 17.6206 30.2277C17.6706 30.1377 17.6306 30.0677 17.5306 30.0677L17.5106 30.0777ZM8.3206 28.7677C8.7006 28.6977 9.07061 28.6277 9.45061 28.5477C9.32061 28.6177 9.17061 28.7477 9.22061 28.8177C8.33061 28.8677 7.44061 28.9577 6.59061 29.2077C6.57061 29.2077 6.54061 29.2277 6.51061 29.2477C6.27061 29.2377 6.04061 29.2377 5.80061 29.2377C6.64061 29.0777 7.4806 28.9177 8.3206 28.7577V28.7677ZM3.4906 30.0277C3.2606 30.0477 3.03061 30.0477 2.80061 30.0377C2.79061 29.9577 2.75061 29.8877 2.69061 29.8377C3.47061 29.6877 4.2606 29.5377 5.0406 29.3877C4.9906 29.4277 4.9406 29.4777 4.9306 29.5177C4.9006 29.5177 4.86061 29.5177 4.83061 29.5177C4.52061 29.5477 4.15061 29.5377 3.86061 29.6677C3.72061 29.7277 3.54061 29.8577 3.50061 30.0177L3.4906 30.0277ZM14.6906 28.7077C14.6906 28.7077 14.6506 28.7277 14.6306 28.7477C13.7706 28.8077 12.9006 28.9777 12.0506 29.0977C11.1606 29.2177 10.2706 29.3377 9.39061 29.4677C7.63061 29.7077 5.87061 29.9477 4.12061 30.1977C4.10061 30.1977 4.08061 30.1977 4.06061 30.2077C4.16061 30.1077 4.23061 29.9877 4.11061 29.9677C4.13061 29.9677 4.1606 29.9677 4.1806 29.9677C4.3506 29.9477 4.52061 29.9377 4.69061 29.9177C5.03061 29.8777 5.38061 29.8377 5.72061 29.8077C5.78061 29.8077 5.93062 29.7177 6.02062 29.6277C6.37062 29.6377 6.7206 29.6677 7.0706 29.7077C7.2006 29.7277 7.3406 29.6577 7.4306 29.5577C7.4806 29.5077 7.5306 29.3977 7.4606 29.3577C8.4106 29.1977 9.3806 29.1777 10.3506 29.1177C10.4306 29.1177 10.6706 28.9677 10.7106 28.8577C11.1306 28.8877 11.5606 28.9477 11.9706 29.0377C12.0906 29.0677 12.5406 28.8077 12.3506 28.6977C12.2406 28.6277 12.1206 28.5677 12.0106 28.4977C12.2606 28.4177 12.5306 28.4077 12.7906 28.4477C12.8206 28.4977 12.8606 28.5377 12.9306 28.5577C13.1406 28.6377 13.4306 28.4777 13.4906 28.2677C13.4906 28.2477 13.4906 28.2377 13.4906 28.2277C13.6506 28.2277 13.8006 28.2377 13.9606 28.2477C14.0606 28.2477 14.1606 28.2477 14.2606 28.2477C14.5006 28.2977 14.7506 28.3077 15.0106 28.2677C15.0106 28.2677 15.0206 28.2677 15.0306 28.2677C15.0106 28.2877 15.0006 28.3077 14.9906 28.3277C14.9606 28.4077 14.9906 28.4677 15.0906 28.4577C15.1806 28.4577 15.2806 28.4577 15.3706 28.4577C15.1306 28.5077 14.9006 28.5777 14.6906 28.7077ZM13.9406 37.4277C13.8606 37.5577 13.6906 37.7077 13.7106 37.8677C13.7306 38.0377 13.8106 38.1977 13.8206 38.3677C13.8206 38.5377 13.8206 38.7077 13.7706 38.8777C13.7206 39.0877 13.6206 39.2877 13.4906 39.4577C13.4906 39.3677 13.5006 39.2677 13.5706 39.1877C13.6306 39.0777 13.5806 39.0077 13.4706 39.0077C13.3406 39.0077 13.1806 39.1177 13.1106 39.2177C12.7806 39.7977 12.4406 40.3777 12.1106 40.9677C12.0706 41.0477 12.0206 41.1177 11.9806 41.1977L14.4606 36.2977C14.4606 36.2977 14.4706 36.3777 14.4906 36.4177C14.4106 36.5977 14.3306 36.7877 14.2406 36.9577C14.1506 37.1177 14.0606 37.2877 13.9606 37.4377L13.9406 37.4277ZM14.4806 37.8877C14.4306 37.9777 14.3806 38.0577 14.3406 38.1477C14.3406 37.9777 14.3006 37.8077 14.2406 37.6377C14.5106 37.2377 14.7406 36.8177 14.9306 36.3777C14.9706 36.3377 15.0006 36.3077 15.0106 36.2777C15.2006 35.8477 15.4306 35.4477 15.7006 35.0577C15.7006 35.0977 15.7006 35.1377 15.7006 35.1777C15.6906 35.2577 15.6706 35.3477 15.6606 35.4277C15.6606 35.4777 15.6806 35.4977 15.7206 35.5077C15.3206 36.3077 14.9106 37.1077 14.4906 37.8977L14.4806 37.8877ZM15.8306 34.3877C15.7606 34.4277 15.7006 34.4677 15.6806 34.4877C15.4206 34.7977 15.1906 35.1277 14.9906 35.4777C14.9606 35.4877 14.9306 35.4977 14.9106 35.5077C14.8706 35.5277 14.8306 35.5577 14.8006 35.5777C15.2106 34.7577 15.6206 33.9477 16.0406 33.1277C15.9706 33.5477 15.9006 33.9577 15.8406 34.3777L15.8306 34.3877ZM16.7206 32.7677C16.6906 32.8977 16.6406 33.0177 16.5906 33.1377C16.5706 33.0277 16.5706 32.9177 16.5906 32.8077C16.6106 32.6577 16.3306 32.7477 16.1706 32.8677L16.4106 32.3877C16.4106 32.3877 16.4306 32.3477 16.4406 32.3377C16.4806 32.3577 16.5206 32.3677 16.5806 32.3677C16.6406 32.3677 16.7006 32.3477 16.7606 32.3177C16.7806 32.4577 16.7606 32.6277 16.7306 32.7677H16.7206ZM16.5706 30.6177C16.5706 30.6177 16.4806 30.7377 16.5106 30.7977C16.5606 30.9277 16.5906 31.0577 16.6206 31.1877C16.5206 31.0677 16.3806 30.9977 16.2306 30.9977C16.1606 30.9177 16.0906 30.8277 16.0206 30.7477C16.0606 30.6477 16.0606 30.5377 16.0006 30.4377C15.9106 30.2877 15.7606 30.1677 15.6406 30.0477C15.6406 30.0477 15.6206 30.0277 15.6106 30.0177C15.6806 29.8177 15.7206 29.6177 15.6606 29.4177C15.8206 29.3977 15.9806 29.3677 16.1306 29.3077C15.9306 29.4177 15.7706 29.5877 15.7206 29.7977C15.7106 29.8377 15.7106 29.8877 15.7506 29.9077C16.0806 30.0777 16.4606 30.0677 16.8006 29.9377C16.8606 30.1777 16.7506 30.4477 16.5706 30.6177ZM17.3006 32.1977C17.3006 32.0377 17.2606 31.8877 17.1506 31.7777C17.1406 31.7677 17.1206 31.7577 17.1106 31.7477C17.2106 31.3677 17.1906 30.9777 17.0506 30.5977C17.0906 30.5477 17.1206 30.4977 17.1606 30.4477C17.1606 30.5477 17.2206 30.6277 17.3306 30.6877C17.5406 30.7877 17.7806 30.7277 17.9606 30.5977C18.0106 30.5577 18.0506 30.5177 18.0906 30.4677C17.9506 30.8477 17.7606 31.2177 17.6106 31.5577C17.5106 31.7677 17.4106 31.9877 17.3206 32.1977H17.3006Z" fill="#90D5DC"/>
<path d="M10.1506 23.2179C10.9906 23.1779 11.8406 23.1479 12.6806 23.1079C13.1006 23.0879 13.5206 23.0679 13.9506 23.0579C14.3806 23.0379 14.8206 23.0579 15.2406 22.9779C15.4706 22.9379 15.0806 22.6679 14.9806 22.6579C14.1406 22.5979 13.2706 22.6979 12.4306 22.7379C11.5706 22.7779 10.7106 22.8079 9.8406 22.8479C8.1306 22.9179 6.43061 22.9879 4.72061 23.0579C4.38061 23.0679 4.7906 23.4579 4.9806 23.4479C6.7006 23.3779 8.4306 23.3079 10.1506 23.2279V23.2179Z" fill="#90D5DC"/>
<path d="M13.1905 21.9977C11.5905 22.0977 9.98049 22.0877 8.38049 21.9777C7.48049 21.9177 6.59048 21.8177 5.70048 21.6877C5.57048 21.6677 5.55048 21.7777 5.59048 21.8677C5.65048 21.9877 5.83048 22.0577 5.95048 22.0777C9.30048 22.5577 12.7105 22.5777 16.0705 22.1277C16.0705 22.1477 16.0705 22.1777 16.0905 22.1977C16.0105 22.5677 15.9205 22.9377 15.8305 23.3077C15.8305 23.3277 15.8305 23.3477 15.8305 23.3677C15.6405 23.4677 15.4005 23.4677 15.1905 23.4777C14.6605 23.5077 14.1305 23.5377 13.6005 23.5677C12.5005 23.6277 11.4105 23.6877 10.3105 23.7477L4.40048 24.0777C4.29048 23.9877 4.10048 23.9077 4.03048 23.9277C3.95048 23.9377 3.89048 23.9777 3.85048 24.0277C3.16048 24.4577 2.29048 24.5477 1.54048 24.2077C1.26048 24.0777 1.24049 24.3577 1.47049 24.4777C2.26049 24.8777 3.17048 24.9177 3.96048 24.5677C4.25048 24.8377 4.66048 24.8177 5.03048 24.8177C5.74048 24.8177 6.45049 24.8177 7.16049 24.8177C7.15049 24.8877 7.19048 24.9577 7.26048 25.0077C5.42048 25.0177 3.57048 24.9877 1.73048 24.8977C1.60048 24.8977 1.57048 24.9777 1.62048 25.0777C1.68048 25.1877 1.86048 25.2777 1.98048 25.2877C6.83048 25.5177 11.7105 25.3977 16.5405 24.9277C17.1205 24.8677 17.7105 24.8277 18.2805 24.7377C18.7705 24.6577 19.2705 24.5177 19.6405 24.1877C20.3705 23.5277 20.4305 22.4077 20.1005 21.5277C19.7205 20.5077 18.9405 19.6977 18.2405 18.8877C17.4005 17.9077 16.5605 16.9377 15.7105 15.9577C13.7905 13.7377 11.8805 11.5177 9.96048 9.30775C9.82048 9.13775 9.32048 9.08775 9.57048 9.37775C9.78048 9.61775 9.98049 9.85775 10.1905 10.0977C10.1305 10.0477 10.0505 10.0077 9.98048 9.98775C9.90048 9.96775 9.75048 9.98775 9.79048 10.1077C9.79048 10.1177 9.80048 10.1377 9.81048 10.1477C9.67048 10.0677 9.48049 10.0277 9.52049 10.1877C9.59049 10.4377 9.71048 10.7077 9.92048 10.8677C10.0905 11.1677 10.2605 11.4577 10.4405 11.7477C10.4805 11.8077 10.6405 11.8877 10.7605 11.9177C10.6705 11.9277 10.6005 11.9977 10.6805 12.0977C11.7805 13.5177 12.8805 14.9277 13.9805 16.3477C14.5205 17.0377 15.0605 17.7377 15.6005 18.4277C16.0105 18.9577 16.4105 19.5077 16.8305 20.0377C16.8005 20.1077 16.7805 20.1677 16.7505 20.2377C16.6205 20.1777 16.3605 20.1677 16.5405 20.3477C16.5605 20.3777 16.5905 20.3877 16.6205 20.4077C16.5305 20.3477 16.4105 20.3177 16.3905 20.4077C16.3705 20.4877 16.3605 20.5777 16.3405 20.6577C15.9505 19.9477 15.4105 19.3077 14.9305 18.6577C14.4305 17.9977 13.9305 17.3377 13.4105 16.6877C12.3705 15.3877 11.2905 14.1177 10.1705 12.8877C10.1005 12.8077 9.92049 12.6977 9.80049 12.7377C9.68049 12.7777 9.72049 12.8877 9.80049 12.9577C10.9205 14.1977 12.0005 15.4677 13.0405 16.7777C13.5505 17.4177 14.0505 18.0577 14.5305 18.7077C15.0305 19.3777 15.4905 20.0877 16.0405 20.7177C16.0805 20.7677 16.2105 20.8177 16.3005 20.8277C16.2605 21.0677 16.2205 21.3077 16.1805 21.5377C15.7905 21.0877 15.3805 20.6577 14.9905 20.2077C14.3905 19.5277 13.8005 18.8477 13.2305 18.1577C12.0705 16.7777 10.9605 15.3677 9.87048 13.9277C9.79048 13.8277 9.64048 13.7077 9.51048 13.7177C9.40048 13.7177 9.32048 13.7877 9.40048 13.8977C10.4805 15.3277 11.5905 16.7377 12.7405 18.1077C13.3105 18.7877 13.8805 19.4577 14.4705 20.1277C14.9305 20.6577 15.3905 21.1977 15.8905 21.6977C15.7605 21.7177 15.6305 21.7377 15.5005 21.7577C14.7205 21.8577 13.9305 21.9277 13.1505 21.9777L13.1905 21.9977ZM8.96048 24.6177C8.82048 24.7077 8.66048 24.7777 8.49048 24.8277C8.28048 24.8877 8.06048 24.8977 7.85048 24.8777C7.93048 24.8277 8.02048 24.7977 8.12048 24.8077C8.25048 24.8077 8.28049 24.7277 8.22049 24.6277C8.16049 24.5077 7.98049 24.4277 7.86049 24.4177C7.19049 24.4177 6.52048 24.4177 5.85048 24.4177C5.76048 24.4177 5.68048 24.4177 5.59048 24.4177L11.0805 24.1077C11.0805 24.1077 11.0205 24.1577 10.9905 24.1877C10.7905 24.2177 10.5905 24.2377 10.3905 24.2377C10.2005 24.2377 10.0205 24.2377 9.83049 24.2377C9.68049 24.2377 9.46049 24.1577 9.33049 24.2577C9.19049 24.3577 9.10048 24.5077 8.95048 24.5977L8.96048 24.6177ZM12.6705 24.6577C12.5905 24.6877 12.5105 24.7177 12.4305 24.7477C12.3905 24.7677 12.3805 24.7977 12.3905 24.8377C11.4905 24.8877 10.6005 24.9377 9.70048 24.9677C9.60048 24.9677 9.50048 24.9677 9.40048 24.9677C9.54048 24.8777 9.68049 24.7577 9.80049 24.6277C10.2805 24.6677 10.7605 24.6477 11.2405 24.5977C11.2905 24.6177 11.3405 24.6177 11.3605 24.6177C11.8305 24.5677 12.2905 24.5677 12.7605 24.5977C12.7305 24.6177 12.6905 24.6377 12.6605 24.6577H12.6705ZM13.4205 24.3677C13.3505 24.3277 13.2905 24.2977 13.2605 24.2977C12.8605 24.2377 12.4605 24.1977 12.0605 24.1877C12.0305 24.1677 12.0105 24.1477 11.9905 24.1377C11.9505 24.1177 11.9105 24.0977 11.8705 24.0777C12.7805 24.0277 13.7005 23.9777 14.6105 23.9277C14.2105 24.0777 13.8205 24.2277 13.4205 24.3777V24.3677ZM15.2605 24.3377C15.1305 24.3777 15.0005 24.3977 14.8705 24.4077C14.9505 24.3377 15.0505 24.2877 15.1605 24.2377C15.3005 24.1777 15.0905 23.9877 14.8905 23.9077L15.4205 23.8777C15.4205 23.8777 15.4605 23.8777 15.4805 23.8777C15.4805 23.9177 15.4905 23.9677 15.5205 24.0177C15.5505 24.0677 15.6005 24.1077 15.6605 24.1477C15.5505 24.2377 15.3905 24.2977 15.2605 24.3477V24.3377ZM18.1305 23.8377C18.0705 23.8877 18.0005 23.9377 17.9305 23.9677C17.9005 23.9777 17.8705 23.9977 17.8405 23.9977C17.8305 23.9277 17.8105 23.8277 17.8905 23.8277C18.0005 23.8277 18.0405 23.7577 17.9805 23.6677C17.9405 23.6077 17.8605 23.5477 17.7805 23.5177C17.9705 23.4777 18.1505 23.3977 18.2705 23.2677C18.3105 23.2777 18.3405 23.2877 18.3805 23.2977C18.3905 23.2977 18.4105 23.2977 18.4205 23.2977C18.4205 23.3177 18.4105 23.3377 18.4005 23.3477C18.3305 23.5277 18.2605 23.6977 18.1205 23.8277L18.1305 23.8377ZM16.9605 17.8677C17.7205 18.7477 18.5805 19.6077 19.2105 20.5877C19.7405 21.4177 20.0505 22.5077 19.5305 23.4177C19.2805 23.8677 18.8705 24.1077 18.4105 24.2377C18.4105 24.2377 18.4305 24.2377 18.4405 24.2277C18.5305 24.1677 18.6405 24.0977 18.7105 24.0177C18.7905 23.9277 18.8405 23.7977 18.8905 23.6877C19.1905 22.9677 19.1805 22.1577 18.9105 21.4377C18.9905 21.5077 19.0705 21.5877 19.1505 21.6477C19.2205 21.7077 19.3605 21.7777 19.4505 21.7377C19.5405 21.6977 19.5005 21.5977 19.4405 21.5477C19.2605 21.3777 19.0705 21.2177 18.8805 21.0477C18.8705 20.4877 18.6505 19.9477 18.2705 19.4977C18.2505 19.4677 18.1605 19.4177 18.0805 19.3877C17.9305 19.1077 17.7805 18.8177 17.4605 18.6977C17.2405 18.2477 16.8905 17.8777 16.4405 17.6377C16.4105 17.6277 16.3405 17.5877 16.2605 17.5777C16.0505 17.0977 15.8005 16.6377 15.5105 16.1977C15.9905 16.7577 16.4705 17.3077 16.9505 17.8677H16.9605ZM14.5305 15.0577C14.7805 15.3477 15.0305 15.6377 15.2805 15.9277C15.1505 15.8477 14.9605 15.7877 14.9305 15.8677C14.4405 15.1277 13.9205 14.3977 13.2805 13.7777C13.2705 13.7677 13.2405 13.7477 13.2005 13.7277C13.0905 13.5177 12.9705 13.3177 12.8605 13.1077C13.4205 13.7577 13.9805 14.4077 14.5405 15.0477L14.5305 15.0577ZM10.6605 10.9177C10.7205 10.8677 10.7705 10.7977 10.7805 10.7177C11.3005 11.3177 11.8205 11.9277 12.3505 12.5277C12.2805 12.5077 12.2205 12.4877 12.1805 12.4977C12.1605 12.4677 12.1405 12.4377 12.1205 12.4177C11.9405 12.1577 11.7605 11.8377 11.5105 11.6477C11.3905 11.5577 11.1905 11.4677 11.0205 11.5077C10.8905 11.3177 10.7705 11.1177 10.6605 10.9177ZM16.1005 18.4477C15.5505 17.7377 15.0005 17.0277 14.4505 16.3277C13.3605 14.9277 12.2705 13.5277 11.1805 12.1277C11.1705 12.1077 11.1505 12.0977 11.1405 12.0777C11.2705 12.1177 11.4205 12.1077 11.3705 11.9977C11.3805 12.0177 11.4005 12.0377 11.4105 12.0577C11.5105 12.1977 11.6105 12.3377 11.7105 12.4777C11.9105 12.7577 12.1205 13.0377 12.3205 13.3177C12.3505 13.3677 12.5005 13.4577 12.6205 13.4977C12.7905 13.8077 12.9405 14.1277 13.0705 14.4477C13.1205 14.5677 13.2505 14.6577 13.3805 14.6877C13.4505 14.6977 13.5605 14.6877 13.5605 14.6077C14.1705 15.3577 14.6805 16.1777 15.2105 16.9877C15.2505 17.0577 15.5005 17.1877 15.6205 17.1777C15.8105 17.5577 15.9705 17.9577 16.1005 18.3577C16.1405 18.4777 16.5905 18.7377 16.5905 18.5177C16.5905 18.3877 16.5905 18.2577 16.5905 18.1177C16.7805 18.2977 16.9305 18.5277 17.0205 18.7777C16.9905 18.8277 16.9805 18.8777 16.9905 18.9577C17.0205 19.1777 17.3105 19.3577 17.5205 19.2977C17.5405 19.2977 17.5405 19.2877 17.5505 19.2777C17.6205 19.4177 17.7005 19.5577 17.7705 19.6877C17.8205 19.7777 17.8605 19.8677 17.9105 19.9577C17.9805 20.1977 18.1005 20.4177 18.2605 20.6177C18.2605 20.6177 18.2605 20.6277 18.2605 20.6377C18.2405 20.6377 18.2105 20.6377 18.1905 20.6377C18.1005 20.6477 18.0705 20.7077 18.1305 20.7877C18.1805 20.8677 18.2305 20.9477 18.2705 21.0277C18.1105 20.8477 17.9305 20.6877 17.7205 20.5577C17.7005 20.5577 17.6805 20.5377 17.6505 20.5277C17.1705 19.8077 16.5905 19.1477 16.0605 18.4677L16.1005 18.4477ZM16.6605 22.7177C16.7705 22.7077 16.8605 22.6477 16.9205 22.5477C17.0005 22.3977 17.0305 22.2077 17.0805 22.0377C17.0805 22.0277 17.0805 22.0177 17.0805 21.9977C17.2905 21.9577 17.4805 21.8977 17.6205 21.7377C17.7205 21.8677 17.8305 21.9877 17.9505 22.0877C17.7605 21.9677 17.5305 21.9177 17.3205 21.9777C17.2805 21.9877 17.2305 22.0077 17.2405 22.0577C17.2605 22.4277 17.4605 22.7577 17.7405 22.9877C17.5605 23.1577 17.2705 23.1977 17.0405 23.1277C16.9805 23.1077 16.8905 23.1077 16.8505 23.1677C16.7605 23.2777 16.6705 23.3677 16.5605 23.4577C16.6205 23.3077 16.6005 23.1577 16.5305 23.0277C16.5705 22.9277 16.6105 22.8177 16.6505 22.7177H16.6605ZM16.3305 24.2077C16.3305 24.2077 16.3305 24.1677 16.3305 24.1577C16.7105 24.0577 17.0405 23.8377 17.3005 23.5377C17.3605 23.5477 17.4205 23.5477 17.4905 23.5477C17.4105 23.5977 17.3605 23.6877 17.3705 23.8077C17.3805 24.0377 17.5605 24.2177 17.7605 24.3077C17.8205 24.3277 17.8705 24.3477 17.9305 24.3577C17.5305 24.4277 17.1205 24.4477 16.7405 24.4877C16.5105 24.5077 16.2705 24.5277 16.0405 24.5577C16.1805 24.4777 16.2905 24.3677 16.3205 24.2177L16.3305 24.2077Z" fill="#90D5DC"/>
<path d="M20.2405 13.8677C20.6905 14.5777 21.1505 15.2877 21.6005 16.0077C21.8305 16.3677 22.0505 16.7177 22.2805 17.0777C22.5105 17.4377 22.7205 17.8277 23.0005 18.1577C23.1505 18.3377 23.1905 17.8577 23.1505 17.7677C22.7805 17.0077 22.2605 16.3077 21.8105 15.5977C21.3505 14.8677 20.8905 14.1377 20.4205 13.4077C19.5105 11.9677 18.5905 10.5277 17.6805 9.07774C17.5005 8.79774 17.3705 9.33774 17.4705 9.49774C18.3905 10.9577 19.3205 12.4077 20.2405 13.8677Z" fill="#90D5DC"/>
<path d="M21.9906 20.2878C22.3306 20.7578 22.6606 21.2478 23.0306 21.6978C23.3406 22.0778 23.7106 22.4478 24.1906 22.5978C25.1306 22.8978 26.1306 22.3878 26.7206 21.6678C27.4206 20.8278 27.7306 19.7478 28.0806 18.7378C28.5006 17.5178 28.9306 16.3078 29.3506 15.0878C30.3106 12.3178 31.2806 9.55783 32.2406 6.78783C32.3106 6.57783 32.1106 6.11783 31.9806 6.48783C31.8806 6.78783 31.7706 7.08783 31.6706 7.38783C31.6806 7.30783 31.6806 7.21783 31.6606 7.14783C31.6306 7.06783 31.5506 6.93783 31.4606 7.04783C31.4606 7.05783 31.4406 7.06783 31.4306 7.07783C31.4306 6.91783 31.3706 6.72783 31.2506 6.84783C31.0706 7.02783 30.9006 7.27783 30.8606 7.52783C30.6906 7.82783 30.5206 8.11783 30.3506 8.41783C30.3206 8.47783 30.3206 8.65783 30.3606 8.78783C30.3006 8.70783 30.2106 8.68783 30.1606 8.80783C29.4806 10.4678 28.8106 12.1278 28.1306 13.7878C27.8006 14.5978 27.4706 15.4178 27.1406 16.2278C26.8906 16.8478 26.6106 17.4678 26.3706 18.0978L26.1606 18.1278C26.1606 17.9878 26.0306 17.7578 25.9606 17.9978C25.9606 18.0278 25.9606 18.0678 25.9406 18.0978C25.9406 17.9878 25.9106 17.8678 25.8206 17.8978C25.7406 17.9278 25.6606 17.9578 25.5806 17.9878C26.0006 17.2978 26.2906 16.5078 26.6006 15.7678C26.9306 15.0078 27.2406 14.2378 27.5406 13.4678C28.1506 11.9178 28.7006 10.3478 29.2106 8.76783C29.2406 8.66783 29.2506 8.45783 29.1606 8.37783C29.0606 8.29783 29.0006 8.37783 28.9606 8.47783C28.4506 10.0678 27.8806 11.6378 27.2706 13.1978C26.9706 13.9578 26.6706 14.7078 26.3506 15.4578C26.0206 16.2278 25.6306 16.9778 25.3606 17.7778C25.3406 17.8378 25.3606 17.9778 25.3906 18.0478C25.1606 18.1278 24.9406 18.2178 24.7106 18.2978C24.9106 17.7378 25.0706 17.1578 25.2606 16.5978C25.5506 15.7478 25.8506 14.8878 26.1506 14.0478C26.7706 12.3578 27.4306 10.6878 28.1306 9.02783C28.1806 8.90783 28.2006 8.72783 28.1306 8.60783C28.0706 8.51783 27.9706 8.48783 27.9206 8.60783C27.2206 10.2578 26.5606 11.9178 25.9406 13.6078C25.6406 14.4378 25.3406 15.2778 25.0606 16.1078C24.8306 16.7778 24.5906 17.4378 24.4106 18.1178C24.3306 18.0178 24.2506 17.9078 24.1706 17.8078C23.6906 17.1778 23.2406 16.5378 22.8006 15.8778C21.9106 14.5378 21.1206 13.1478 20.4206 11.7078C20.0306 10.8978 19.6606 10.0778 19.3306 9.24783C19.2806 9.12783 19.1806 9.15783 19.1206 9.24783C19.0506 9.36783 19.0706 9.54783 19.1206 9.66783C20.3806 12.8078 22.0706 15.7778 24.1306 18.4578C24.1106 18.4678 24.0906 18.4878 24.0806 18.5078C23.7206 18.6278 23.3506 18.7278 22.9906 18.8378C22.9706 18.8378 22.9506 18.8578 22.9406 18.8778C22.7606 18.7678 22.6406 18.5478 22.5206 18.3778C22.2306 17.9378 21.9406 17.4878 21.6506 17.0478C21.0506 16.1278 20.4506 15.2078 19.8506 14.2878C18.7706 12.6378 17.6906 10.9778 16.6106 9.32783C16.6306 9.18783 16.6106 8.98783 16.5606 8.92783C16.5106 8.86783 16.4506 8.82783 16.3806 8.82783C15.6606 8.44783 15.1506 7.73783 15.0706 6.91783C15.0406 6.61783 14.7906 6.73783 14.8006 6.98783C14.8506 7.86783 15.2706 8.67783 15.9706 9.18783C15.8806 9.57783 16.1006 9.91783 16.2906 10.2478C16.6506 10.8578 17.0006 11.4778 17.3606 12.0878C17.2906 12.1078 17.2606 12.1878 17.2506 12.2678C16.3206 10.6778 15.4206 9.05783 14.5806 7.41783C14.5206 7.30783 14.4306 7.31783 14.3706 7.41783C14.3006 7.52783 14.3106 7.72783 14.3706 7.83783C16.6006 12.1578 19.1306 16.3178 21.9606 20.2678L21.9906 20.2878ZM20.2606 16.7678C20.1906 16.7178 20.1306 16.6578 20.0606 16.6078C20.0206 16.5778 19.9906 16.5878 19.9706 16.6178C19.4806 15.8678 18.9906 15.1178 18.5206 14.3578C18.4706 14.2778 18.4206 14.1878 18.3706 14.0978C18.5206 14.1778 18.6906 14.2378 18.8606 14.2678C19.0706 14.6978 19.3206 15.1178 19.6106 15.4978C19.6206 15.5478 19.6406 15.5978 19.6506 15.6178C19.9206 15.9978 20.1606 16.3978 20.3606 16.8178C20.3306 16.7978 20.2906 16.7778 20.2606 16.7578V16.7678ZM23.8106 20.6378C23.9406 20.7878 24.1006 20.8978 24.2806 20.9378C24.2806 20.9778 24.3006 21.0178 24.3106 21.0478C24.3106 21.0578 24.3106 21.0678 24.3206 21.0878C24.3006 21.0878 24.2806 21.0878 24.2606 21.0978C24.0706 21.1178 23.8906 21.1578 23.7106 21.0978C23.6406 21.0678 23.5606 21.0378 23.4906 20.9978C23.4606 20.9778 23.4406 20.9578 23.4206 20.9378C23.4806 20.8878 23.5506 20.8278 23.5906 20.8978C23.6406 20.9878 23.7206 20.9878 23.7706 20.8978C23.8106 20.8378 23.8206 20.7378 23.8006 20.6478L23.8106 20.6378ZM29.5106 13.5878C29.3806 13.9478 29.2606 14.3078 29.1306 14.6678C29.1306 14.5178 29.1006 14.3178 29.0106 14.3378C29.4106 13.5378 29.7806 12.7278 29.9906 11.8578C29.9906 11.8378 29.9906 11.8078 29.9906 11.7678C30.1206 11.5678 30.2406 11.3678 30.3506 11.1578C30.0706 11.9678 29.7906 12.7778 29.5106 13.5878ZM30.8306 8.76783C30.9306 8.55783 31.0406 8.35783 31.1606 8.15783C31.2406 8.18783 31.3206 8.18783 31.3906 8.15783C31.1306 8.90783 30.8706 9.66783 30.6006 10.4178C30.5906 10.3478 30.5706 10.2878 30.5406 10.2578C30.5506 10.2278 30.5706 10.1978 30.5806 10.1678C30.7106 9.87783 30.9006 9.56783 30.9406 9.24783C30.9606 9.09783 30.9406 8.87783 30.8206 8.75783L30.8306 8.76783ZM26.3706 19.0478C26.7506 18.2678 27.0306 17.4378 27.3606 16.6378C27.7006 15.8078 28.0406 14.9778 28.3706 14.1478C29.0406 12.5078 29.7106 10.8578 30.3806 9.21783C30.3806 9.19783 30.3906 9.17783 30.4006 9.15783C30.4306 9.28783 30.5106 9.41783 30.5906 9.31783C30.5806 9.33783 30.5706 9.36783 30.5606 9.38783C30.4906 9.54783 30.4206 9.69783 30.3506 9.85783C30.2106 10.1778 30.0706 10.4878 29.9306 10.8078C29.9106 10.8578 29.9006 11.0378 29.9306 11.1578C29.7406 11.4578 29.5506 11.7478 29.3306 12.0278C29.2506 12.1278 29.2406 12.2978 29.2806 12.4078C29.3006 12.4778 29.3706 12.5678 29.4406 12.5278C29.1006 13.4278 28.6406 14.2778 28.2006 15.1478C28.1606 15.2178 28.1706 15.4978 28.2406 15.5878C28.0006 15.9378 27.7406 16.2778 27.4506 16.5978C27.3706 16.6878 27.3706 17.2078 27.5606 17.1078C27.6706 17.0378 27.7906 16.9778 27.9006 16.9078C27.8406 17.1678 27.7206 17.3978 27.5506 17.6078C27.5006 17.6078 27.4406 17.6278 27.3806 17.6678C27.2106 17.8078 27.2006 18.1378 27.3506 18.2978C27.3606 18.3078 27.3706 18.3078 27.3806 18.3178C27.3006 18.4478 27.2106 18.5778 27.1306 18.7178C27.0806 18.7978 27.0206 18.8878 26.9706 18.9778C26.8006 19.1578 26.6706 19.3778 26.5806 19.6078C26.5806 19.6078 26.5806 19.6178 26.5806 19.6278C26.5806 19.6078 26.5606 19.5878 26.5506 19.5678C26.5006 19.4978 26.4306 19.5078 26.3906 19.5878C26.3506 19.6678 26.3006 19.7478 26.2506 19.8278C26.3306 19.5978 26.3806 19.3578 26.3806 19.1178C26.3806 19.0978 26.3806 19.0678 26.3806 19.0478H26.3706ZM26.1706 20.5578C26.1506 20.6678 26.1206 20.7678 26.1106 20.8778C26.1006 20.9678 26.1106 21.1278 26.1906 21.1878C26.2706 21.2478 26.3306 21.1578 26.3506 21.0778C26.4106 20.8378 26.4606 20.5878 26.5006 20.3478C26.9806 20.0578 27.3406 19.5978 27.5406 19.0478C27.5506 19.0178 27.5506 18.9178 27.5406 18.8278C27.7106 18.5578 27.8906 18.2778 27.8306 17.9478C28.1106 17.5378 28.2506 17.0378 28.2406 16.5378C28.2406 16.5078 28.2306 16.4278 28.2006 16.3578C28.5106 15.9378 28.7906 15.4878 29.0206 15.0178C28.7806 15.7078 28.5406 16.4078 28.3006 17.0978C27.9206 18.1978 27.6006 19.3678 27.0706 20.4078C26.6206 21.2878 25.8206 22.0878 24.7706 22.0978C24.2506 22.0978 23.8506 21.8678 23.5006 21.5378C23.5006 21.5378 23.5206 21.5478 23.5206 21.5578C23.6206 21.6078 23.7306 21.6678 23.8406 21.6878C23.9606 21.7078 24.1006 21.6878 24.2206 21.6778C24.9906 21.5778 25.6906 21.1678 26.1706 20.5678V20.5578ZM23.6206 19.3078C23.7306 19.2878 23.8406 19.2678 23.9406 19.2578C24.0106 19.3478 24.1006 19.3978 24.2206 19.3978C24.3906 19.3978 24.5706 19.3278 24.7406 19.2778C24.7506 19.2778 24.7606 19.2778 24.7806 19.2678C24.9106 19.4278 25.0706 19.5678 25.2706 19.6078C25.2006 19.7578 25.1606 19.9078 25.1306 20.0678C25.1306 19.8378 25.0706 19.6178 24.9106 19.4678C24.8806 19.4378 24.8406 19.4078 24.8006 19.4378C24.4906 19.6478 24.3006 19.9778 24.2506 20.3378C24.0106 20.2678 23.8306 20.0378 23.7806 19.7978C23.7706 19.7378 23.7206 19.6578 23.6506 19.6478C23.5106 19.6278 23.3806 19.5878 23.2606 19.5478C23.4206 19.5278 23.5406 19.4378 23.6206 19.3078ZM22.4906 19.7178C22.4906 19.7178 22.5206 19.6978 22.5406 19.6978C22.8206 19.9778 23.1706 20.1478 23.5706 20.2278C23.5906 20.2878 23.6206 20.3378 23.6506 20.3978C23.5606 20.3578 23.4606 20.3578 23.3606 20.4278C23.1706 20.5578 23.1006 20.7978 23.1206 21.0178C23.1206 21.0778 23.1406 21.1378 23.1706 21.1878C22.9106 20.8778 22.6906 20.5278 22.4706 20.2278C22.3306 20.0378 22.2006 19.8478 22.0606 19.6578C22.2006 19.7378 22.3506 19.7778 22.5006 19.7378L22.4906 19.7178ZM22.0306 18.3178L22.3206 18.7678C22.3206 18.7678 22.3406 18.7978 22.3506 18.8178C22.3106 18.8378 22.2806 18.8678 22.2506 18.9278C22.2206 18.9778 22.2106 19.0478 22.2106 19.1078C22.0706 19.0578 21.9406 18.9578 21.8406 18.8578C21.7406 18.7678 21.6606 18.6678 21.5806 18.5578C21.6806 18.5978 21.7806 18.6478 21.8706 18.7178C21.9906 18.8078 22.0506 18.5278 22.0206 18.3278L22.0306 18.3178ZM20.3706 15.7778C20.8706 16.5478 21.3706 17.3078 21.8706 18.0778C21.5406 17.8078 21.2206 17.5478 20.8906 17.2778C20.8906 17.1978 20.8906 17.1278 20.8706 17.0978C20.7206 16.7178 20.5506 16.3578 20.3606 16.0078C20.3606 15.9678 20.3706 15.9378 20.3706 15.9178C20.3706 15.8778 20.3706 15.8278 20.3706 15.7878V15.7778ZM17.0606 10.7578C17.0206 10.6778 16.9706 10.6078 16.9306 10.5278L19.9406 15.1278C19.9406 15.1278 19.8706 15.0978 19.8206 15.0878C19.7006 14.9278 19.5806 14.7678 19.4706 14.5978C19.3706 14.4378 19.2806 14.2778 19.1906 14.1178C19.1206 13.9778 19.0706 13.7578 18.9206 13.6978C18.7606 13.6278 18.5906 13.6178 18.4306 13.5378C18.2806 13.4578 18.1406 13.3578 18.0106 13.2378C17.8506 13.0878 17.7306 12.9078 17.6506 12.7078C17.7306 12.7478 17.8006 12.8078 17.8506 12.9078C17.9106 13.0178 17.9906 13.0078 18.0606 12.9078C18.1306 12.7978 18.1106 12.6078 18.0606 12.4878C17.7206 11.9078 17.3906 11.3278 17.0506 10.7478L17.0606 10.7578Z" fill="#90D5DC"/>
<path d="M35.7905 13.3477C34.9905 14.8777 34.1905 16.4077 33.3905 17.9377C33.0005 18.6877 32.6105 19.4377 32.2205 20.1877C32.0205 20.5577 31.8306 20.9377 31.6306 21.3077C31.4306 21.6877 31.2005 22.0677 31.0605 22.4677C30.9805 22.6877 31.4105 22.4777 31.4705 22.4077C31.9405 21.7077 32.2905 20.9077 32.6805 20.1577C33.0805 19.3977 33.4806 18.6277 33.8806 17.8677C34.6706 16.3577 35.4605 14.8377 36.2505 13.3277C36.4105 13.0277 35.8705 13.1877 35.7805 13.3577L35.7905 13.3477Z" fill="#90D5DC"/>
<path d="M28.0005 24.2577C27.8205 24.7177 27.6905 25.2177 27.8005 25.7077C28.0105 26.6677 28.9505 27.2777 29.8705 27.4377C30.9405 27.6177 32.0405 27.3477 33.0905 27.1477C34.3605 26.9077 35.6205 26.6677 36.8905 26.4177C39.7705 25.8677 42.6505 25.3177 45.5205 24.7677C45.7405 24.7277 46.0305 24.3177 45.6505 24.3977C45.3405 24.4577 45.0305 24.5177 44.7205 24.5777C44.8005 24.5477 44.8705 24.5077 44.9205 24.4477C44.9805 24.3877 45.0405 24.2477 44.9205 24.2277C44.9105 24.2277 44.8905 24.2277 44.8805 24.2277C45.0205 24.1377 45.1505 23.9977 44.9905 23.9577C44.7405 23.8877 44.4505 23.8677 44.2005 23.9577C43.8605 23.9577 43.5205 23.9577 43.1805 23.9577C43.1105 23.9577 42.9605 24.0577 42.8705 24.1477C42.9105 24.0577 42.8805 23.9677 42.7605 23.9877C40.9805 24.2277 39.2105 24.4777 37.4305 24.7177L34.8205 25.0777C34.1605 25.1677 33.4805 25.2377 32.8105 25.3477C32.7705 25.2977 32.7205 25.2377 32.6805 25.1877C32.8005 25.1077 32.9405 24.8877 32.6905 24.9477C32.6605 24.9477 32.6305 24.9777 32.5905 24.9877C32.6905 24.9377 32.7705 24.8477 32.7005 24.7877C32.6405 24.7277 32.5705 24.6777 32.5005 24.6177C33.3105 24.6377 34.1405 24.4877 34.9305 24.3977C35.7505 24.2977 36.5705 24.1877 37.3905 24.0677C39.0305 23.8177 40.6705 23.5177 42.3005 23.1677C42.4105 23.1477 42.5905 23.0477 42.6105 22.9277C42.6305 22.7977 42.5205 22.7877 42.4205 22.8077C40.7905 23.1577 39.1405 23.4577 37.4905 23.7077C36.6905 23.8277 35.8805 23.9377 35.0705 24.0377C34.2405 24.1377 33.3905 24.1777 32.5705 24.3377C32.5105 24.3477 32.4005 24.4277 32.3505 24.5077C32.1605 24.3577 31.9805 24.1977 31.7905 24.0477C32.3705 23.9377 32.9605 23.7977 33.5405 23.6777C34.4205 23.4977 35.3105 23.3277 36.2005 23.1777C37.9705 22.8677 39.7505 22.6077 41.5405 22.3877C41.6705 22.3677 41.8405 22.2977 41.9005 22.1777C41.9505 22.0777 41.9305 21.9777 41.7905 21.9977C40.0105 22.2177 38.2405 22.4777 36.4705 22.7877C35.6005 22.9377 34.7305 23.0977 33.8605 23.2777C33.1705 23.4177 32.4705 23.5377 31.7905 23.7177C31.8405 23.5977 31.8905 23.4677 31.9405 23.3477C32.2405 22.6177 32.5705 21.9077 32.9205 21.1977C33.6305 19.7577 34.4505 18.3777 35.3405 17.0477C35.8405 16.3077 36.3705 15.5777 36.9305 14.8777C37.0105 14.7777 36.9305 14.6977 36.8205 14.6977C36.6805 14.6977 36.5405 14.8077 36.4605 14.9077C34.3705 17.5677 32.6505 20.5177 31.3505 23.6477C31.3305 23.6477 31.3105 23.6377 31.2805 23.6277C31.0005 23.3777 30.7205 23.1077 30.4505 22.8477C30.4405 22.8377 30.4205 22.8277 30.3905 22.8277C30.3905 22.6177 30.5205 22.3977 30.6205 22.2177C30.8605 21.7477 31.1005 21.2677 31.3405 20.7977C31.8405 19.8177 32.3305 18.8377 32.8305 17.8577C33.7205 16.0977 34.6105 14.3377 35.5005 12.5677C35.6405 12.5177 35.7905 12.3877 35.8205 12.3277C35.8505 12.2477 35.8505 12.1777 35.8205 12.1177C35.7905 11.3077 36.1505 10.5077 36.8205 10.0277C37.0705 9.84773 36.8405 9.69774 36.6205 9.83774C35.8805 10.3177 35.3905 11.0877 35.3005 11.9477C34.9205 12.0677 34.7305 12.4277 34.5505 12.7477L33.4905 14.5977C33.4405 14.5477 33.3505 14.5577 33.2805 14.5977C34.1905 12.9977 35.1405 11.4177 36.1405 9.85773C36.2105 9.74773 36.1405 9.67773 36.0305 9.67773C35.9005 9.67773 35.7305 9.78773 35.6705 9.88773C33.0405 13.9777 30.7105 18.2577 28.7005 22.6777C28.4605 23.2077 28.2105 23.7377 28.0005 24.2877V24.2577ZM34.6305 26.5077C33.4805 26.7277 32.3105 27.0377 31.1505 27.0977C30.1705 27.1477 29.0705 26.8577 28.5405 25.9577C28.2805 25.5177 28.2805 25.0477 28.3905 24.5777C28.3905 24.5777 28.3905 24.5977 28.3905 24.6077C28.3905 24.7177 28.4005 24.8477 28.4405 24.9477C28.4805 25.0577 28.5705 25.1777 28.6405 25.2677C29.1105 25.8877 29.8205 26.2877 30.5805 26.4077C30.4805 26.4377 30.3805 26.4677 30.2705 26.5077C30.1905 26.5377 30.0505 26.6277 30.0405 26.7277C30.0405 26.8277 30.1405 26.8377 30.2105 26.8177C30.4505 26.7477 30.6805 26.6677 30.9205 26.5877C31.4105 26.8577 31.9905 26.9477 32.5705 26.8377C32.6005 26.8377 32.6905 26.7877 32.7605 26.7277C33.0805 26.7377 33.4105 26.7577 33.6705 26.5377C34.1705 26.5777 34.6605 26.4477 35.1005 26.1877C35.1305 26.1677 35.1905 26.1177 35.2405 26.0677C35.7605 26.1277 36.2805 26.1377 36.8105 26.1077C36.0905 26.2477 35.3705 26.3877 34.6405 26.5177L34.6305 26.5077ZM29.0805 24.4977C29.1505 24.4977 29.2405 24.4577 29.3105 24.4077C29.2505 24.5977 29.2305 24.7877 29.2805 24.9577C29.2505 24.9877 29.2205 25.0077 29.2005 25.0377C29.2005 25.0377 29.1805 25.0577 29.1705 25.0677C29.1605 25.0577 29.1405 25.0377 29.1305 25.0277C29.0105 24.8777 28.8905 24.7377 28.8605 24.5477C28.8505 24.4677 28.8405 24.3877 28.8405 24.3077C28.8405 24.2777 28.8405 24.2477 28.8505 24.2177C28.9205 24.2377 29.0105 24.2777 28.9705 24.3477C28.9205 24.4377 28.9605 24.5077 29.0605 24.5077L29.0805 24.4977ZM38.2705 25.8177C37.8905 25.8877 37.5205 25.9577 37.1405 26.0377C37.2705 25.9677 37.4205 25.8377 37.3705 25.7677C38.2605 25.7177 39.1505 25.6277 40.0005 25.3777C40.0205 25.3777 40.0505 25.3577 40.0805 25.3377C40.3205 25.3477 40.5505 25.3477 40.7905 25.3477C39.9505 25.5077 39.1105 25.6677 38.2705 25.8277V25.8177ZM43.1005 24.5477C43.3305 24.5277 43.5605 24.5277 43.7905 24.5377C43.8005 24.6177 43.8405 24.6877 43.9005 24.7377C43.1205 24.8877 42.3305 25.0377 41.5505 25.1877C41.6005 25.1477 41.6505 25.0977 41.6605 25.0577C41.6905 25.0577 41.7305 25.0577 41.7605 25.0577C42.0705 25.0277 42.4405 25.0377 42.7305 24.9077C42.8705 24.8477 43.0505 24.7177 43.0905 24.5577L43.1005 24.5477ZM31.9105 25.8677C31.9105 25.8677 31.9505 25.8477 31.9705 25.8277C32.8305 25.7677 33.7005 25.5977 34.5505 25.4777C35.4405 25.3577 36.3305 25.2377 37.2105 25.1077C38.9705 24.8677 40.7305 24.6277 42.4805 24.3777C42.5005 24.3777 42.5205 24.3777 42.5405 24.3677C42.4405 24.4677 42.3705 24.5877 42.4905 24.6077C42.4705 24.6077 42.4405 24.6077 42.4205 24.6077C42.2505 24.6277 42.0805 24.6377 41.9105 24.6577C41.5705 24.6977 41.2205 24.7377 40.8805 24.7677C40.8205 24.7677 40.6705 24.8577 40.5805 24.9477C40.2305 24.9377 39.8805 24.9077 39.5305 24.8677C39.4005 24.8477 39.2605 24.9177 39.1705 25.0177C39.1205 25.0677 39.0705 25.1777 39.1405 25.2177C38.1905 25.3777 37.2205 25.3977 36.2505 25.4577C36.1705 25.4577 35.9305 25.6077 35.8905 25.7177C35.4705 25.6877 35.0405 25.6277 34.6305 25.5377C34.5105 25.5077 34.0605 25.7677 34.2505 25.8777C34.3605 25.9477 34.4805 26.0077 34.5905 26.0777C34.3405 26.1577 34.0705 26.1677 33.8105 26.1277C33.7805 26.0777 33.7405 26.0377 33.6705 26.0177C33.4605 25.9377 33.1705 26.0977 33.1105 26.3077C33.1105 26.3277 33.1105 26.3377 33.1105 26.3477C32.9505 26.3477 32.8005 26.3377 32.6405 26.3277C32.5405 26.3277 32.4405 26.3277 32.3405 26.3277C32.1005 26.2777 31.8505 26.2677 31.5905 26.3077C31.5905 26.3077 31.5805 26.3077 31.5705 26.3077C31.5905 26.2877 31.6005 26.2677 31.6105 26.2477C31.6405 26.1677 31.6105 26.1077 31.5105 26.1177C31.4205 26.1177 31.3205 26.1177 31.2305 26.1177C31.4705 26.0677 31.7005 25.9977 31.9105 25.8677ZM32.6505 17.1577C32.7305 17.0277 32.9005 16.8777 32.8805 16.7177C32.8605 16.5477 32.7805 16.3877 32.7705 16.2177C32.7705 16.0477 32.7705 15.8777 32.8205 15.7077C32.8705 15.4977 32.9705 15.2977 33.1005 15.1277C33.1005 15.2177 33.0905 15.3177 33.0205 15.3977C32.9605 15.5077 33.0105 15.5777 33.1205 15.5777C33.2505 15.5777 33.4105 15.4677 33.4805 15.3677C33.8105 14.7877 34.1505 14.2077 34.4805 13.6177C34.5205 13.5377 34.5705 13.4677 34.6105 13.3877L32.1305 18.2877C32.1305 18.2877 32.1205 18.2077 32.1005 18.1677C32.1805 17.9877 32.2605 17.7977 32.3505 17.6277C32.4405 17.4677 32.5305 17.2977 32.6305 17.1477L32.6505 17.1577ZM32.1105 16.6877C32.1605 16.5977 32.2105 16.5177 32.2505 16.4277C32.2505 16.5977 32.2905 16.7677 32.3505 16.9377C32.0805 17.3377 31.8505 17.7577 31.6605 18.1977C31.6205 18.2377 31.5905 18.2677 31.5805 18.2977C31.3905 18.7277 31.1605 19.1277 30.8905 19.5177C30.8905 19.4777 30.8905 19.4377 30.8905 19.3977C30.9005 19.3177 30.9205 19.2277 30.9305 19.1477C30.9305 19.0977 30.9105 19.0777 30.8705 19.0677C31.2705 18.2677 31.6805 17.4677 32.1005 16.6777L32.1105 16.6877ZM30.7605 20.1877C30.8305 20.1477 30.8905 20.1077 30.9105 20.0877C31.1705 19.7777 31.4005 19.4477 31.6005 19.0977C31.6305 19.0877 31.6605 19.0777 31.6805 19.0677C31.7205 19.0477 31.7605 19.0177 31.7905 18.9977C31.3805 19.8177 30.9705 20.6277 30.5505 21.4477C30.6205 21.0277 30.6905 20.6177 30.7505 20.1977L30.7605 20.1877ZM29.8705 21.8077C29.9005 21.6777 29.9505 21.5577 30.0005 21.4377C30.0205 21.5477 30.0205 21.6577 30.0005 21.7677C29.9805 21.9177 30.2605 21.8277 30.4205 21.7077L30.1805 22.1877C30.1805 22.1877 30.1605 22.2277 30.1505 22.2377C30.1105 22.2177 30.0705 22.2077 30.0105 22.2077C29.9505 22.2077 29.8905 22.2277 29.8305 22.2577C29.8105 22.1177 29.8305 21.9477 29.8605 21.8077H29.8705ZM30.0205 23.9577C30.0205 23.9577 30.1105 23.8377 30.0805 23.7777C30.0305 23.6477 30.0005 23.5177 29.9705 23.3877C30.0705 23.5077 30.2105 23.5777 30.3605 23.5777C30.4305 23.6577 30.5005 23.7477 30.5705 23.8277C30.5305 23.9277 30.5305 24.0377 30.5905 24.1377C30.6805 24.2877 30.8305 24.4077 30.9505 24.5277C30.9505 24.5277 30.9705 24.5477 30.9805 24.5577C30.9105 24.7577 30.8705 24.9577 30.9305 25.1577C30.7705 25.1777 30.6105 25.2077 30.4605 25.2677C30.6605 25.1577 30.8205 24.9877 30.8705 24.7777C30.8805 24.7377 30.8805 24.6877 30.8405 24.6677C30.5105 24.4977 30.1305 24.5077 29.7905 24.6377C29.7305 24.3977 29.8405 24.1277 30.0205 23.9577ZM29.3005 22.3777C29.3005 22.5377 29.3405 22.6877 29.4505 22.7977C29.4605 22.8077 29.4805 22.8177 29.4905 22.8277C29.3905 23.2077 29.4105 23.5977 29.5505 23.9777C29.5105 24.0277 29.4805 24.0777 29.4405 24.1277C29.4405 24.0277 29.3805 23.9477 29.2705 23.8877C29.0605 23.7877 28.8205 23.8477 28.6405 23.9777C28.5905 24.0177 28.5505 24.0577 28.5105 24.1077C28.6505 23.7277 28.8405 23.3577 28.9905 23.0177C29.0905 22.8077 29.1905 22.5877 29.2805 22.3777H29.3005Z" fill="#90D5DC"/>
<path d="M41.6205 31.1379C39.9005 31.2079 38.1705 31.2779 36.4505 31.3579C35.6105 31.3979 34.7605 31.4279 33.9205 31.4679C33.5005 31.4879 33.0805 31.5079 32.6505 31.5179C32.2205 31.5379 31.7805 31.5179 31.3605 31.5979C31.1305 31.6379 31.5205 31.9079 31.6205 31.9179C32.4605 31.9779 33.3305 31.8779 34.1705 31.8379C35.0305 31.7979 35.8905 31.7679 36.7605 31.7279C38.4705 31.6579 40.1705 31.5879 41.8805 31.5179C42.2205 31.5079 41.8105 31.1179 41.6205 31.1279V31.1379Z" fill="#90D5DC"/>
<path d="M40.6305 32.4979C37.2805 32.0179 33.8705 31.9979 30.5105 32.4479C30.5105 32.4279 30.5105 32.3979 30.4905 32.3779C30.5705 32.0079 30.6605 31.6379 30.7505 31.2679C30.7505 31.2479 30.7505 31.2279 30.7505 31.2079C30.9405 31.1079 31.1805 31.1079 31.3905 31.0979C31.9205 31.0679 32.4505 31.0379 32.9805 31.0079C34.0805 30.9479 35.1705 30.8879 36.2705 30.8279C38.2405 30.7179 40.2105 30.6079 42.1805 30.4979C42.2905 30.5879 42.4805 30.6679 42.5505 30.6479C42.6305 30.6379 42.6905 30.5979 42.7305 30.5479C43.4205 30.1179 44.2905 30.0279 45.0405 30.3679C45.3205 30.4979 45.3405 30.2179 45.1105 30.0979C44.3205 29.6979 43.4105 29.6579 42.6205 30.0079C42.3305 29.7379 41.9205 29.7579 41.5505 29.7579C40.8405 29.7579 40.1305 29.7579 39.4205 29.7579C39.4305 29.6879 39.3905 29.6179 39.3205 29.5679C41.1605 29.5579 43.0105 29.5879 44.8505 29.6779C44.9805 29.6779 45.0105 29.5979 44.9605 29.4979C44.9005 29.3879 44.7205 29.2979 44.6005 29.2879C39.7505 29.0579 34.8705 29.1779 30.0405 29.6479C29.4605 29.7079 28.8705 29.7479 28.3005 29.8379C27.8105 29.9179 27.3105 30.0579 26.9405 30.3879C26.2105 31.0479 26.1505 32.1679 26.4805 33.0479C26.8605 34.0679 27.6405 34.8779 28.3405 35.6879C29.1805 36.6679 30.0205 37.6379 30.8705 38.6179C32.7905 40.8379 34.7005 43.0579 36.6205 45.2679C36.7605 45.4379 37.2605 45.4879 37.0105 45.1979C36.8005 44.9579 36.6005 44.7179 36.3905 44.4779C36.4505 44.5279 36.5305 44.5679 36.6005 44.5879C36.6805 44.6079 36.8305 44.5879 36.7905 44.4679C36.7905 44.4579 36.7805 44.4379 36.7705 44.4279C36.9105 44.5079 37.1005 44.5479 37.0605 44.3879C36.9905 44.1379 36.8705 43.8679 36.6605 43.7079C36.4905 43.4079 36.3205 43.1179 36.1405 42.8279C36.1005 42.7679 35.9405 42.6879 35.8205 42.6579C35.9105 42.6479 35.9805 42.5779 35.9005 42.4779C34.8005 41.0579 33.7005 39.6479 32.6005 38.2279C32.0605 37.5379 31.5205 36.8379 30.9805 36.1479C30.5705 35.6179 30.1705 35.0679 29.7505 34.5379L29.8305 34.3379C29.9605 34.3979 30.2205 34.4079 30.0405 34.2279C30.0205 34.1979 29.9905 34.1879 29.9605 34.1679C30.0505 34.2279 30.1705 34.2579 30.1905 34.1679C30.2105 34.0879 30.2205 33.9979 30.2405 33.9179C30.6305 34.6279 31.1705 35.2679 31.6505 35.9179C32.1505 36.5779 32.6505 37.2379 33.1705 37.8879C34.2105 39.1879 35.2905 40.4579 36.4105 41.6879C36.4805 41.7679 36.6605 41.8779 36.7805 41.8379C36.9005 41.7979 36.8605 41.6879 36.7805 41.6179C35.6605 40.3779 34.5805 39.1079 33.5405 37.7979C33.0305 37.1579 32.5305 36.5179 32.0505 35.8679C31.5505 35.1979 31.0905 34.4879 30.5405 33.8579C30.5005 33.8079 30.3705 33.7579 30.2805 33.7479C30.3205 33.5079 30.3605 33.2679 30.4005 33.0379C30.7905 33.4879 31.2005 33.9179 31.5905 34.3679C32.1905 35.0479 32.7805 35.7279 33.3505 36.4179C34.5105 37.7979 35.6205 39.2079 36.7105 40.6479C36.7905 40.7479 36.9405 40.8679 37.0705 40.8579C37.1805 40.8579 37.2605 40.7879 37.1805 40.6779C36.1005 39.2479 34.9905 37.8379 33.8405 36.4679C33.2705 35.7879 32.7005 35.1179 32.1105 34.4479C31.6505 33.9179 31.1905 33.3779 30.6905 32.8779C30.8205 32.8579 30.9505 32.8379 31.0805 32.8179C31.8605 32.7179 32.6505 32.6479 33.4305 32.5979C35.0305 32.4979 36.6405 32.5079 38.2405 32.6179C39.1405 32.6779 40.0305 32.7779 40.9205 32.9079C41.0505 32.9279 41.0705 32.8179 41.0305 32.7279C40.9705 32.6079 40.7905 32.5379 40.6705 32.5179L40.6305 32.4979ZM37.6305 29.9579C37.7705 29.8679 37.9305 29.7979 38.1005 29.7479C38.3105 29.6879 38.5305 29.6779 38.7405 29.6979C38.6605 29.7479 38.5705 29.7779 38.4705 29.7679C38.3405 29.7679 38.3105 29.8479 38.3705 29.9479C38.4305 30.0679 38.6105 30.1479 38.7305 30.1579C39.4005 30.1579 40.0705 30.1579 40.7405 30.1579C40.8305 30.1579 40.9105 30.1579 41.0005 30.1579L35.5105 30.4679C35.5105 30.4679 35.5705 30.4179 35.6005 30.3879C35.8005 30.3579 36.0005 30.3379 36.2005 30.3379C36.3905 30.3379 36.5705 30.3379 36.7605 30.3379C36.9105 30.3379 37.1305 30.4179 37.2605 30.3179C37.4005 30.2179 37.4905 30.0679 37.6405 29.9779L37.6305 29.9579ZM33.9305 29.9279C34.0105 29.8979 34.0905 29.8679 34.1705 29.8379C34.2105 29.8179 34.2205 29.7879 34.2105 29.7479C35.1105 29.6979 36.0005 29.6479 36.9005 29.6179C37.0005 29.6179 37.1005 29.6179 37.2005 29.6179C37.0605 29.7079 36.9205 29.8279 36.8005 29.9579C36.3205 29.9179 35.8405 29.9379 35.3605 29.9879C35.3105 29.9679 35.2605 29.9679 35.2405 29.9679C34.7705 30.0179 34.3105 30.0179 33.8405 29.9879C33.8705 29.9679 33.9105 29.9479 33.9405 29.9279H33.9305ZM33.1805 30.2079C33.2505 30.2479 33.3105 30.2779 33.3405 30.2779C33.7405 30.3379 34.1405 30.3779 34.5405 30.3879C34.5705 30.4079 34.5905 30.4279 34.6105 30.4379C34.6505 30.4579 34.6905 30.4779 34.7305 30.4979C33.8205 30.5479 32.9005 30.5979 31.9905 30.6479C32.3905 30.4979 32.7805 30.3479 33.1805 30.1979V30.2079ZM31.3305 30.2379C31.4605 30.1979 31.5905 30.1779 31.7205 30.1679C31.6405 30.2379 31.5405 30.2879 31.4305 30.3379C31.2905 30.3979 31.5005 30.5879 31.7005 30.6679L31.1705 30.6979C31.1705 30.6979 31.1305 30.6979 31.1105 30.6979C31.1105 30.6579 31.1005 30.6079 31.0705 30.5579C31.0405 30.5079 30.9905 30.4679 30.9305 30.4279C31.0405 30.3379 31.2005 30.2779 31.3305 30.2279V30.2379ZM28.4605 30.7479C28.5205 30.6979 28.5905 30.6479 28.6605 30.6179C28.6905 30.6079 28.7205 30.5879 28.7505 30.5879C28.7605 30.6579 28.7805 30.7579 28.7005 30.7579C28.5905 30.7579 28.5505 30.8279 28.6105 30.9179C28.6505 30.9779 28.7305 31.0379 28.8105 31.0679C28.6205 31.1079 28.4405 31.1879 28.3205 31.3179C28.2805 31.3079 28.2505 31.2979 28.2105 31.2879C28.2005 31.2879 28.1805 31.2879 28.1705 31.2879C28.1705 31.2679 28.1805 31.2479 28.1905 31.2379C28.2605 31.0579 28.3305 30.8879 28.4705 30.7579L28.4605 30.7479ZM29.6405 36.7179C28.8805 35.8379 28.0205 34.9779 27.3905 33.9979C26.8605 33.1679 26.5505 32.0779 27.0705 31.1679C27.3205 30.7179 27.7305 30.4779 28.1905 30.3479C28.1905 30.3479 28.1705 30.3479 28.1605 30.3579C28.0705 30.4179 27.9605 30.4879 27.8905 30.5679C27.8105 30.6579 27.7605 30.7879 27.7105 30.8979C27.4105 31.6179 27.4205 32.4279 27.6905 33.1479C27.6105 33.0779 27.5305 32.9979 27.4505 32.9379C27.3805 32.8779 27.2405 32.8079 27.1505 32.8479C27.0605 32.8879 27.1005 32.9879 27.1605 33.0379C27.3405 33.2079 27.5305 33.3679 27.7205 33.5379C27.7305 34.0979 27.9505 34.6379 28.3305 35.0879C28.3505 35.1179 28.4405 35.1679 28.5205 35.1979C28.6705 35.4779 28.8205 35.7679 29.1405 35.8879C29.3605 36.3379 29.7105 36.7079 30.1605 36.9479C30.1905 36.9579 30.2605 36.9979 30.3405 37.0079C30.5505 37.4879 30.8005 37.9479 31.0905 38.3879C30.6105 37.8279 30.1305 37.2779 29.6505 36.7179H29.6405ZM32.0605 39.5179C31.8105 39.2279 31.5605 38.9379 31.3105 38.6479C31.4405 38.7279 31.6305 38.7879 31.6605 38.7079C32.1505 39.4479 32.6705 40.1779 33.3105 40.7979C33.3205 40.8079 33.3505 40.8279 33.3905 40.8479C33.5005 41.0579 33.6205 41.2579 33.7305 41.4679C33.1705 40.8179 32.6105 40.1679 32.0505 39.5279L32.0605 39.5179ZM35.9305 43.6579C35.8705 43.7079 35.8205 43.7779 35.8105 43.8579C35.2905 43.2579 34.7705 42.6479 34.2405 42.0479C34.3105 42.0679 34.3705 42.0879 34.4105 42.0779C34.4305 42.1079 34.4505 42.1379 34.4705 42.1579C34.6505 42.4179 34.8305 42.7379 35.0805 42.9279C35.2005 43.0179 35.4005 43.1079 35.5705 43.0679C35.7005 43.2579 35.8205 43.4579 35.9305 43.6579ZM30.4905 36.1279C31.0405 36.8379 31.5905 37.5479 32.1405 38.2479C33.2305 39.6479 34.3205 41.0479 35.4105 42.4479C35.4205 42.4679 35.4405 42.4779 35.4505 42.4979C35.3205 42.4579 35.1705 42.4679 35.2205 42.5779C35.2105 42.5579 35.1905 42.5379 35.1805 42.5179C35.0805 42.3779 34.9805 42.2379 34.8805 42.0979C34.6805 41.8179 34.4705 41.5379 34.2705 41.2579C34.2405 41.2079 34.0905 41.1179 33.9705 41.0779C33.8005 40.7679 33.6505 40.4479 33.5205 40.1279C33.4705 40.0079 33.3405 39.9179 33.2105 39.8879C33.1405 39.8779 33.0305 39.8879 33.0305 39.9679C32.4205 39.2179 31.9105 38.3979 31.3805 37.5879C31.3405 37.5179 31.0905 37.3879 30.9705 37.3979C30.7805 37.0179 30.6205 36.6179 30.4905 36.2179C30.4505 36.0979 30.0005 35.8379 30.0005 36.0579C30.0005 36.1879 30.0005 36.3179 30.0005 36.4579C29.8105 36.2779 29.6605 36.0479 29.5705 35.7979C29.6005 35.7479 29.6105 35.6979 29.6005 35.6179C29.5705 35.3979 29.2805 35.2179 29.0705 35.2779C29.0505 35.2779 29.0505 35.2879 29.0405 35.2979C28.9705 35.1579 28.8905 35.0179 28.8205 34.8879C28.7705 34.7979 28.7305 34.7079 28.6805 34.6179C28.6105 34.3779 28.4905 34.1579 28.3305 33.9579C28.3305 33.9579 28.3305 33.9479 28.3305 33.9379C28.3505 33.9379 28.3805 33.9379 28.4005 33.9379C28.4905 33.9279 28.5205 33.8679 28.4605 33.7879C28.4105 33.7079 28.3605 33.6279 28.3205 33.5479C28.4805 33.7279 28.6605 33.8879 28.8705 34.0179C28.8905 34.0179 28.9105 34.0379 28.9405 34.0479C29.4205 34.7679 30.0005 35.4279 30.5305 36.1079L30.4905 36.1279ZM29.9405 31.8679C29.8305 31.8779 29.7405 31.9379 29.6805 32.0379C29.6005 32.1879 29.5705 32.3779 29.5205 32.5479C29.5205 32.5579 29.5205 32.5679 29.5205 32.5879C29.3105 32.6279 29.1205 32.6879 28.9805 32.8479C28.8805 32.7179 28.7705 32.5979 28.6505 32.4979C28.8405 32.6179 29.0705 32.6679 29.2805 32.6079C29.3205 32.5979 29.3705 32.5779 29.3605 32.5279C29.3405 32.1579 29.1405 31.8279 28.8605 31.5979C29.0405 31.4279 29.3305 31.3879 29.5605 31.4579C29.6205 31.4779 29.7105 31.4779 29.7505 31.4179C29.8405 31.3079 29.9305 31.2179 30.0405 31.1279C29.9805 31.2779 30.0005 31.4279 30.0705 31.5579C30.0305 31.6579 29.9905 31.7679 29.9505 31.8679H29.9405ZM30.2605 30.3779C30.2605 30.3779 30.2605 30.4179 30.2605 30.4279C29.8805 30.5279 29.5505 30.7479 29.2905 31.0479C29.2305 31.0379 29.1705 31.0379 29.1005 31.0379C29.1805 30.9879 29.2305 30.8979 29.2205 30.7779C29.2105 30.5479 29.0305 30.3679 28.8305 30.2779C28.7705 30.2579 28.7205 30.2379 28.6605 30.2279C29.0605 30.1579 29.4705 30.1379 29.8405 30.0979C30.0705 30.0779 30.3105 30.0579 30.5405 30.0279C30.4005 30.1079 30.2905 30.2179 30.2605 30.3679V30.3779Z" fill="#90D5DC"/>
<path d="M24.3906 25.5877C24.0806 25.3977 23.6906 25.3777 23.3406 25.4877C23.0506 25.3377 22.7606 25.4677 22.5306 25.6877C22.2206 25.7977 21.9506 25.9977 21.7706 26.2877C21.5206 26.6977 21.4906 27.2177 21.6006 27.6777C21.6006 27.7077 21.6206 27.7477 21.6306 27.7777C21.6306 28.0277 21.6806 28.2677 21.7806 28.4577C21.9706 28.8077 22.2806 28.9677 22.6306 28.9977C22.7206 29.0577 22.8306 29.1077 22.9606 29.1277C23.1606 29.1677 23.3606 29.1477 23.5506 29.0777C24.3606 28.9577 24.9406 28.2377 24.8906 27.4177C25.1306 26.7777 24.9506 25.9277 24.3806 25.5777L24.3906 25.5877Z" fill="#90D5DC"/>
<path d="M25.7405 50.8379C25.7405 50.8379 25.7105 50.7679 25.6905 50.7279C25.6605 50.6479 25.6305 50.5579 25.5905 50.4779C25.5505 50.3979 25.5005 50.3179 25.4505 50.2379C25.4205 50.1979 25.4005 50.1479 25.3705 50.0979C25.3505 50.0779 25.3205 50.0579 25.3005 50.0279C25.2405 49.9579 25.1805 49.8979 25.1105 49.8379C25.0605 49.7979 25.0205 49.7579 24.9705 49.7279C24.8805 49.6579 24.7705 49.5979 24.6605 49.5479C24.6305 49.5379 24.6105 49.5279 24.5805 49.5179C24.5005 49.4879 24.4405 49.4379 24.3505 49.4179C24.3505 49.4179 24.3405 49.4179 24.3305 49.4179C24.2505 49.1079 24.1405 48.8079 23.9805 48.5279C23.9505 48.4779 23.8905 48.3779 23.8105 48.3879C23.0905 48.4579 22.7405 49.2579 22.8105 49.9679C22.4805 50.3879 22.2805 50.9679 22.2505 51.5079C22.2305 51.5579 22.2105 51.6179 22.2005 51.6679C22.1505 51.8979 22.1305 52.1279 22.1405 52.3679C22.0405 52.9779 22.1305 53.6479 22.5405 54.0979C22.9805 54.5879 23.6905 54.6879 24.2905 54.4579C24.3105 54.4579 24.3205 54.4379 24.3305 54.4379C24.8605 54.3679 25.3305 54.0879 25.6205 53.6179C25.8405 53.2579 25.9105 52.8179 25.9005 52.3879C25.9005 52.2579 25.9005 52.1379 25.9005 52.0079C25.9105 51.9279 25.9405 51.8479 25.9405 51.7679C25.9605 51.4379 25.8805 51.0979 25.7205 50.8279L25.7405 50.8379Z" fill="#90D5DC"/>
<path d="M3.78055 37.5877C3.25055 37.5077 2.65055 37.6277 2.17055 37.8777C2.11055 37.8877 2.06055 37.8977 2.00055 37.9177C1.78055 37.9877 1.57055 38.0877 1.37055 38.2077C0.800546 38.4277 0.260543 38.8377 0.0705427 39.4177C-0.139457 40.0477 0.140555 40.7077 0.630555 41.1177C0.640555 41.1277 0.660549 41.1277 0.670549 41.1377C1.00055 41.5577 1.48055 41.8277 2.02055 41.8377C2.44055 41.8377 2.86055 41.6977 3.22055 41.4677C3.33055 41.4077 3.44054 41.3477 3.54054 41.2677C3.62054 41.2377 3.70055 41.2277 3.77055 41.1877C4.07055 41.0377 4.32055 40.8077 4.48055 40.5277C4.51055 40.4977 4.53055 40.4577 4.55055 40.4277C4.61055 40.3577 4.66054 40.2877 4.71054 40.2177C4.76054 40.1377 4.80054 40.0577 4.85054 39.9777C4.87054 39.9277 4.91054 39.8877 4.93054 39.8377C4.94054 39.8077 4.94055 39.7777 4.95055 39.7477C4.98055 39.6677 5.00056 39.5777 5.02056 39.4977C5.03056 39.4377 5.04055 39.3777 5.05055 39.3177C5.06055 39.1977 5.06055 39.0777 5.05055 38.9577C5.05055 38.9277 5.05055 38.9077 5.05055 38.8777C5.04055 38.7977 5.05056 38.7177 5.02056 38.6377C5.02056 38.6377 5.02056 38.6277 5.02056 38.6177C5.25056 38.3877 5.45055 38.1477 5.62055 37.8777C5.65055 37.8277 5.70055 37.7177 5.66055 37.6577C5.24055 37.0677 4.37054 37.1677 3.79054 37.5877H3.78055Z" fill="#90D5DC"/>
<path d="M1.35048 16.3578C1.46048 16.4278 1.57048 16.4878 1.68048 16.5378C1.74048 16.5878 1.80048 16.6478 1.87048 16.6978C2.15048 16.8778 2.48048 16.9778 2.79048 16.9778C2.83048 16.9778 2.87049 16.9778 2.91049 16.9878C3.00049 17.0078 3.08049 17.0178 3.17049 17.0178C3.26049 17.0178 3.35049 17.0178 3.45049 17.0178C3.50049 17.0178 3.56049 17.0178 3.61049 17.0178C3.64049 17.0178 3.67049 16.9978 3.70049 16.9978C3.79049 16.9778 3.87049 16.9578 3.95049 16.9278C4.01049 16.9078 4.06048 16.8878 4.12048 16.8678C4.23048 16.8178 4.33048 16.7578 4.43048 16.6978C4.45048 16.6778 4.47049 16.6678 4.50049 16.6478C4.57049 16.5978 4.64049 16.5578 4.70049 16.4978C4.70049 16.4978 4.70048 16.4878 4.71048 16.4778C5.02048 16.5578 5.33048 16.6178 5.65048 16.6278C5.71048 16.6278 5.83049 16.6278 5.86049 16.5478C6.16049 15.8878 5.64048 15.1878 4.99048 14.8878C4.79048 14.3878 4.39048 13.9278 3.93048 13.6378C3.89048 13.5978 3.86049 13.5478 3.81049 13.5078C3.64049 13.3478 3.44048 13.2178 3.24048 13.1078C2.76048 12.7178 2.14048 12.4578 1.54048 12.5878C0.890482 12.7278 0.46048 13.2878 0.35048 13.9178C0.35048 13.9378 0.35048 13.9478 0.35048 13.9678C0.15048 14.4678 0.150487 15.0178 0.420487 15.4978C0.620487 15.8678 0.960485 16.1478 1.34049 16.3578H1.35048Z" fill="#90D5DC"/>
<path d="M22.3406 3.7378C22.3406 3.7378 22.3706 3.8078 22.3906 3.8478C22.4206 3.9278 22.4506 4.0178 22.4906 4.0978C22.5306 4.1778 22.5806 4.2578 22.6306 4.3378C22.6606 4.3778 22.6806 4.4278 22.7106 4.4778C22.7306 4.4978 22.7606 4.5178 22.7806 4.5478C22.8406 4.6178 22.9006 4.6778 22.9706 4.7378C23.0206 4.7778 23.0606 4.8178 23.1106 4.8478C23.2006 4.9178 23.3106 4.9778 23.4206 5.0278C23.4506 5.0378 23.4706 5.0478 23.5006 5.0578C23.5806 5.0878 23.6406 5.1378 23.7306 5.1578C23.7306 5.1578 23.7406 5.1578 23.7506 5.1578C23.8306 5.4678 23.9406 5.7678 24.1006 6.0478C24.1306 6.0978 24.1906 6.1978 24.2706 6.1878C24.9906 6.1178 25.3406 5.3178 25.2706 4.6078C25.6006 4.1878 25.8006 3.6078 25.8306 3.0678C25.8506 3.0178 25.8706 2.9578 25.8806 2.9078C25.9306 2.6778 25.9506 2.4478 25.9406 2.2078C26.0406 1.5978 25.9506 0.927802 25.5406 0.477802C25.1006 -0.0121984 24.3906 -0.112198 23.7906 0.117802C23.7706 0.117802 23.7606 0.137802 23.7506 0.137802C23.2206 0.207802 22.7506 0.487802 22.4606 0.957802C22.2406 1.3178 22.1706 1.7578 22.1806 2.1878C22.1806 2.3178 22.1806 2.4378 22.1806 2.5678C22.1706 2.6478 22.1406 2.7278 22.1406 2.8078C22.1206 3.1378 22.2006 3.4778 22.3606 3.7478L22.3406 3.7378Z" fill="#90D5DC"/>
<path d="M47.4505 13.4578C47.4505 13.4578 47.4205 13.4478 47.4105 13.4378C47.0805 13.0178 46.6005 12.7478 46.0605 12.7378C45.6405 12.7378 45.2205 12.8778 44.8605 13.1078C44.7505 13.1678 44.6405 13.2278 44.5405 13.3078C44.4605 13.3378 44.3805 13.3478 44.3105 13.3878C44.0105 13.5378 43.7605 13.7678 43.6005 14.0478C43.5705 14.0778 43.5505 14.1178 43.5305 14.1478C43.4705 14.2178 43.4205 14.2878 43.3705 14.3578C43.3205 14.4378 43.2805 14.5178 43.2305 14.5978C43.2105 14.6478 43.1705 14.6878 43.1505 14.7378C43.1405 14.7678 43.1405 14.7978 43.1305 14.8278C43.1005 14.9078 43.0805 14.9978 43.0605 15.0778C43.0505 15.1378 43.0405 15.1978 43.0305 15.2578C43.0205 15.3778 43.0205 15.4978 43.0305 15.6178C43.0305 15.6478 43.0305 15.6678 43.0305 15.6978C43.0405 15.7778 43.0305 15.8578 43.0605 15.9378C43.0605 15.9378 43.0605 15.9478 43.0605 15.9578C42.8305 16.1878 42.6305 16.4278 42.4605 16.6978C42.4305 16.7478 42.3805 16.8578 42.4205 16.9178C42.8405 17.5078 43.7105 17.4078 44.2905 16.9878C44.8205 17.0678 45.4205 16.9478 45.9005 16.6978C45.9605 16.6878 46.0105 16.6778 46.0705 16.6578C46.2905 16.5878 46.5005 16.4878 46.7005 16.3678C47.2705 16.1478 47.8105 15.7378 48.0005 15.1578C48.2105 14.5278 47.9305 13.8678 47.4405 13.4578H47.4505Z" fill="#90D5DC"/>
<path d="M46.7306 38.2178C46.6206 38.1478 46.5105 38.0878 46.4005 38.0378C46.3405 37.9878 46.2805 37.9278 46.2105 37.8778C45.9305 37.6978 45.6005 37.5979 45.2905 37.5979C45.2505 37.5979 45.2105 37.5979 45.1705 37.5779C45.0805 37.5579 45.0005 37.5479 44.9105 37.5479C44.8205 37.5479 44.7305 37.5479 44.6305 37.5479C44.5805 37.5479 44.5205 37.5479 44.4705 37.5479C44.4405 37.5479 44.4105 37.5679 44.3805 37.5679C44.2905 37.5879 44.2105 37.6079 44.1305 37.6379C44.0705 37.6579 44.0205 37.6778 43.9605 37.6978C43.8505 37.7478 43.7505 37.8079 43.6505 37.8679C43.6305 37.8879 43.6105 37.8979 43.5805 37.9179C43.5105 37.9679 43.4405 38.0079 43.3805 38.0679C43.3805 38.0679 43.3805 38.0778 43.3705 38.0878C43.0605 38.0078 42.7505 37.9479 42.4305 37.9379C42.3705 37.9379 42.2505 37.9378 42.2205 38.0178C41.9205 38.6778 42.4405 39.3778 43.0905 39.6778C43.2905 40.1778 43.6905 40.6378 44.1505 40.9278C44.1905 40.9678 44.2205 41.0178 44.2705 41.0578C44.4405 41.2178 44.6405 41.3479 44.8405 41.4579C45.3205 41.8479 45.9406 42.1079 46.5406 41.9779C47.1906 41.8379 47.6206 41.2779 47.7306 40.6479C47.7306 40.6279 47.7306 40.6179 47.7306 40.5979C47.9306 40.0979 47.9305 39.5479 47.6605 39.0679C47.4605 38.6979 47.1205 38.4179 46.7405 38.2079L46.7306 38.2178Z" fill="#90D5DC"/>
</svg>
