<svg width="76" height="72" viewBox="0 0 76 72" fill="none" xmlns="http://www.w3.org/2000/svg">
<path d="M30.1065 9.35229L26.7029 22.2595C26.7029 22.2595 19.6765 22.6297 12.0522 22.9714C9.65447 23.0789 7.03069 23.3669 4.56022 23.7112C0.0966277 24.3334 -1.56448 29.6735 1.73676 32.789C3.70138 34.6431 5.87995 36.5831 8.02081 38.2596C14.5941 43.407 19.0146 46.8452 19.0146 46.8452L15.9626 58.4194C15.4855 60.2286 14.9602 62.7128 14.4696 65.2343C13.5838 69.7875 18.0604 73.388 22.2223 71.4757C24.3933 70.4781 26.5374 69.4557 28.1755 68.5944C33.3929 65.8514 39.0933 62.1092 39.0933 62.1092C39.0933 62.1092 47.7096 67.1975 51.4819 69.4334C52.2757 69.9039 53.3516 70.4946 54.5557 71.134C58.8811 73.4308 63.7615 69.4616 62.5654 64.6537C62.0365 62.5278 61.5464 60.6546 61.2145 59.5925C60.0674 55.9224 56.6569 46.8009 56.6569 46.8009C56.6569 46.8009 65.0854 40.9029 69.2589 37.607C70.5583 36.5809 72.3445 34.9697 74.1886 33.237C77.7208 29.9183 75.783 24.048 71.0047 23.4812C68.6372 23.2004 66.1532 22.9228 63.8074 22.6917C55.3046 21.854 49.6387 22.1183 49.6387 22.1183C49.6387 22.1183 46.7033 13.8711 44.1359 8.06833C43.5163 6.66792 42.7235 4.97674 41.8772 3.2167C39.6728 -1.36762 33.2655 -0.969583 31.7205 3.8852C31.1133 5.79326 30.547 7.68177 30.1065 9.35229Z" fill="#E9559B"/>
</svg>
